<svg width="286" height="81" viewBox="0 0 286 81" fill="none" xmlns="http://www.w3.org/2000/svg">
<g clip-path="url(#clip0_488_39522)">
<path d="M38.5431 76.6859C59.8293 76.6859 77.0851 59.5147 77.0851 38.333C77.0851 17.1512 59.8293 -0.0200195 38.5431 -0.0200195C17.2569 -0.0200195 0.000976562 17.1512 0.000976562 38.333C0.000976562 59.5147 17.2569 76.6859 38.5431 76.6859Z" fill="#FDC114"/>
<path d="M38.5799 29.4327C31.2378 29.4327 25.2617 23.4859 25.2617 16.1952C25.2617 8.90463 31.2378 2.94238 38.5799 2.94238C45.922 2.94238 51.8981 8.88918 51.8981 16.1798C51.8981 23.4704 45.922 29.4172 38.5799 29.4172V29.4327ZM38.5799 7.36C33.6904 7.36 29.7011 11.3142 29.7011 16.1798C29.7011 21.0454 33.6904 24.9996 38.5799 24.9996C43.4695 24.9996 47.4587 21.0454 47.4587 16.1798C47.4587 11.3142 43.4695 7.36 38.5799 7.36Z" fill="#252A61"/>
<path d="M38.5413 27.4093C42.7013 21.4162 50.3228 18.6359 57.4942 20.8601C55.5073 19.5781 53.1324 18.8367 50.6022 18.8367H26.4959C23.9658 18.8367 21.5909 19.5781 19.604 20.8601C26.7753 18.6359 34.3968 21.4162 38.5568 27.4093H38.5413Z" fill="#57C2EF"/>
<path d="M63.432 36.9499C63.3078 27.1261 51.5729 22.4768 44.7741 29.2576C42.7872 31.2348 41.5609 33.9533 41.5609 36.9499V47.3452C41.5609 48.9979 40.226 50.3263 38.5651 50.3263C36.9042 50.3263 35.5693 48.9979 35.5693 47.3452V36.9499C35.5693 27.4041 23.8499 22.3532 16.9114 29.2576C14.9245 31.2348 13.6982 33.9533 13.6982 36.9499V50.3726C13.6982 57.3852 19.4726 63.1312 26.5197 63.1312H50.626C57.1764 63.1312 63.4475 57.1226 63.4475 50.3726V36.9499H63.432Z" fill="#BEE6F4"/>
<path d="M24.5964 45.1536C29.1485 45.1536 32.8388 41.4815 32.8388 36.9517C32.8388 32.4219 29.1485 28.7498 24.5964 28.7498C20.0442 28.7498 16.354 32.4219 16.354 36.9517C16.354 41.4815 20.0442 45.1536 24.5964 45.1536Z" fill="#252A61"/>
<path d="M52.4777 45.1536C57.0299 45.1536 60.7201 41.4815 60.7201 36.9517C60.7201 32.4219 57.0299 28.7498 52.4777 28.7498C47.9256 28.7498 44.2354 32.4219 44.2354 36.9517C44.2354 41.4815 47.9256 45.1536 52.4777 45.1536Z" fill="#252A61"/>
<path d="M57.1538 33.931C58.0539 33.931 58.7836 33.2048 58.7836 32.3091C58.7836 31.4134 58.0539 30.6873 57.1538 30.6873C56.2536 30.6873 55.5239 31.4134 55.5239 32.3091C55.5239 33.2048 56.2536 33.931 57.1538 33.931Z" fill="white"/>
<path d="M60.432 72.3884C62.0929 72.3884 63.4279 73.7168 63.4279 75.3695C63.4279 77.0223 62.0929 78.3507 60.432 78.3507H16.6589C14.998 78.3507 13.6631 77.0223 13.6631 75.3695C13.6631 73.7168 14.998 72.3884 16.6589 72.3884H60.4165H60.432Z" fill="white"/>
<path d="M28.9296 77.9973C28.9296 79.6501 27.5947 80.9784 25.9338 80.9784C24.2729 80.9784 22.938 79.6501 22.938 77.9973V72.7301C22.938 71.0774 24.2729 69.749 25.9338 69.749C27.5947 69.749 28.9296 71.0774 28.9296 72.7301V77.9973Z" fill="#1C1C1D"/>
<path d="M34.9125 77.9973C34.9125 79.6501 33.5776 80.9784 31.9167 80.9784C30.2558 80.9784 28.9209 79.6501 28.9209 77.9973V72.7301C28.9209 71.0774 30.2558 69.749 31.9167 69.749C33.5776 69.749 34.9125 71.0774 34.9125 72.7301V77.9973Z" fill="#1C1C1D"/>
<path d="M48.1645 77.9973C48.1645 79.6501 46.8296 80.9784 45.1687 80.9784C43.5078 80.9784 42.1729 79.6501 42.1729 77.9973V72.7301C42.1729 71.0774 43.5078 69.749 45.1687 69.749C46.8296 69.749 48.1645 71.0774 48.1645 72.7301V77.9973Z" fill="#1C1C1D"/>
<path d="M54.1406 77.9973C54.1406 79.6501 52.8056 80.9784 51.1447 80.9784C49.4839 80.9784 48.1489 79.6501 48.1489 77.9973V72.7301C48.1489 71.0774 49.4839 69.749 51.1447 69.749C52.8056 69.749 54.1406 71.0774 54.1406 72.7301V77.9973Z" fill="#1C1C1D"/>
<path d="M29.2929 33.931C30.1931 33.931 30.9228 33.2048 30.9228 32.3091C30.9228 31.4134 30.1931 30.6873 29.2929 30.6873C28.3928 30.6873 27.6631 31.4134 27.6631 32.3091C27.6631 33.2048 28.3928 33.931 29.2929 33.931Z" fill="white"/>
<path d="M69.1794 28.6963C68.3257 23.3365 65.1746 18.718 60.7507 15.8759H60.611C57.6463 13.9297 54.1692 12.7712 50.5991 12.7712H26.4928C22.9072 12.7712 19.4457 13.9297 16.4809 15.8759H16.3412C11.9173 18.718 8.76625 23.3365 7.91252 28.6963C7.7573 29.6076 7.67969 30.5498 7.67969 31.4921V50.3982C7.67969 60.4692 16.6827 69.1191 26.4928 69.1191H50.5991C60.4092 69.1191 69.4122 60.4692 69.4122 50.3982V31.4921C69.4122 30.5498 69.3346 29.6076 69.1794 28.6963ZM38.5537 27.4297C34.4403 21.5138 26.943 18.718 19.8492 20.8033C20.4391 20.4171 21.0445 20.0928 21.6809 19.7993C23.171 19.1814 24.8009 18.8571 26.5083 18.8571H50.6146C52.3221 18.8571 53.9675 19.1969 55.4731 19.8147C56.094 20.0928 56.6994 20.4326 57.2737 20.8033C50.18 18.718 42.6672 21.4984 38.5537 27.4297ZM63.4361 50.3982C63.4361 57.1482 57.1495 63.1568 50.6146 63.1568H26.5083C19.9579 63.1568 13.6869 57.1482 13.6869 50.3982V36.9755C13.811 27.1517 25.546 22.5024 32.3448 29.2833C34.3316 31.2604 35.5579 33.9789 35.5579 36.9755V47.3708C35.5579 49.0235 36.8928 50.3519 38.5537 50.3519C40.2146 50.3519 41.5495 49.0235 41.5495 47.3708V36.9755C41.5495 33.9789 42.7758 31.2604 44.7627 29.2833C51.577 22.5024 63.2964 27.1517 63.4206 36.9755V50.3982H63.4361Z" fill="#252A61"/>
<path d="M95.2983 54.1465C93.7616 54.1465 92.3801 53.7758 91.1849 53.0344C89.9742 52.293 89.1825 51.3198 88.81 50.115L89.2601 48.4623V50.4394C89.2601 51.6288 88.9497 52.5246 88.3443 53.1425C87.7389 53.7603 86.8697 54.0693 85.721 54.0693C84.5724 54.0693 83.6721 53.7603 83.0667 53.1425C82.4613 52.5246 82.1509 51.6288 82.1509 50.4394V28.5212C82.1509 27.3319 82.4613 26.436 83.0822 25.8181C83.7031 25.2003 84.5879 24.8914 85.721 24.8914C86.8542 24.8914 87.7855 25.2003 88.4219 25.8181C89.0583 26.436 89.3688 27.3319 89.3688 28.5212V37.1557H88.8876C89.2912 36.059 90.0828 35.1477 91.278 34.4526C92.4733 33.7575 93.8082 33.4022 95.2983 33.4022C97.0368 33.4022 98.5425 33.8193 99.8619 34.6534C101.166 35.4875 102.19 36.6768 102.92 38.206C103.649 39.7352 104.022 41.6042 104.022 43.7821C104.022 45.96 103.649 47.7518 102.92 49.3118C102.19 50.8719 101.166 52.0767 99.8619 52.9108C98.5425 53.7449 97.0213 54.162 95.2983 54.162V54.1465ZM93.0321 48.8639C93.7616 48.8639 94.398 48.6785 94.9568 48.3233C95.5157 47.9526 95.9503 47.412 96.2763 46.6705C96.6022 45.9291 96.7575 44.9714 96.7575 43.7821C96.7575 41.9749 96.4004 40.6774 95.7019 39.8896C95.0034 39.1019 94.1031 38.7003 93.0321 38.7003C92.3025 38.7003 91.6506 38.8702 91.0918 39.2255C90.5174 39.5807 90.0828 40.1213 89.7569 40.8628C89.4309 41.6042 89.2757 42.5773 89.2757 43.7821C89.2757 45.5584 89.6327 46.8559 90.3312 47.6591C91.0297 48.4623 91.9455 48.8639 93.0476 48.8639H93.0321Z" fill="white"/>
<path d="M113.13 54.1375C111.392 54.1375 109.979 53.8131 108.877 53.1953C107.775 52.562 106.937 51.6198 106.378 50.3532C105.819 49.0866 105.54 47.4802 105.54 45.5494V37.0694C105.54 35.8801 105.85 34.9842 106.471 34.3818C107.092 33.7794 107.992 33.4705 109.141 33.4705C110.29 33.4705 111.19 33.7794 111.811 34.3818C112.432 34.9842 112.742 35.8801 112.742 37.0694V45.7502C112.742 46.7233 112.944 47.4493 113.348 47.9281C113.751 48.407 114.388 48.6541 115.257 48.6541C116.235 48.6541 117.026 48.2988 117.647 47.6038C118.268 46.9087 118.579 45.9819 118.579 44.8234V37.0694C118.579 35.8801 118.889 34.9842 119.51 34.3818C120.131 33.7794 121.031 33.4705 122.18 33.4705C123.328 33.4705 124.229 33.7794 124.85 34.3818C125.471 34.9842 125.781 35.8801 125.781 37.0694V50.4304C125.781 52.8555 124.617 54.0603 122.288 54.0603C121.155 54.0603 120.271 53.7513 119.65 53.1335C119.029 52.5156 118.718 51.6198 118.718 50.4304V48.0826L119.37 50.0597C118.78 51.3726 117.942 52.3921 116.871 53.0872C115.8 53.7822 114.543 54.1375 113.084 54.1375H113.13Z" fill="white"/>
<path d="M131.99 54.0695C130.857 54.0695 129.972 53.7606 129.351 53.1427C128.73 52.5249 128.42 51.629 128.42 50.4397V28.5215C128.42 27.3321 128.73 26.4362 129.351 25.8184C129.972 25.2005 130.857 24.8916 131.99 24.8916C133.123 24.8916 134.054 25.2005 134.691 25.8184C135.327 26.4362 135.638 27.3321 135.638 28.5215V37.3258H134.986C135.638 36.0592 136.553 35.0861 137.764 34.4219C138.959 33.7577 140.341 33.4179 141.878 33.4179C143.414 33.4179 144.78 33.7268 145.805 34.3292C146.829 34.9316 147.605 35.8739 148.118 37.1559C148.63 38.4379 148.894 40.0443 148.894 41.9751V50.4551C148.894 51.6445 148.583 52.5403 147.962 53.1582C147.341 53.776 146.441 54.085 145.293 54.085C144.144 54.085 143.244 53.776 142.623 53.1582C142.002 52.5403 141.691 51.6445 141.691 50.4551V42.2686C141.691 41.0638 141.474 40.1988 141.055 39.6891C140.636 39.1794 140.015 38.9168 139.208 38.9168C138.121 38.9168 137.267 39.2566 136.615 39.9517C135.964 40.6467 135.638 41.5581 135.638 42.7165V50.4705C135.638 52.8956 134.427 54.1004 131.99 54.1004V54.0695Z" fill="white"/>
<path d="M161.489 54.132C159.269 54.132 157.345 53.715 155.684 52.8809C154.038 52.0468 152.75 50.842 151.834 49.2819C150.918 47.7219 150.453 45.8838 150.453 43.7522C150.453 42.1458 150.717 40.6938 151.229 39.4118C151.741 38.1298 152.486 37.0485 153.464 36.1372C154.442 35.2413 155.606 34.5462 156.957 34.0828C158.307 33.6195 159.828 33.3723 161.505 33.3723C163.724 33.3723 165.649 33.7894 167.31 34.6235C168.971 35.4576 170.244 36.6469 171.144 38.1915C172.044 39.7362 172.51 41.5897 172.51 43.7367C172.51 45.3277 172.246 46.7642 171.734 48.0617C171.222 49.3592 170.477 50.4558 169.53 51.3517C168.567 52.2476 167.403 52.9427 166.037 53.4061C164.671 53.8695 163.165 54.1166 161.52 54.1166L161.489 54.132ZM161.489 48.8494C162.219 48.8494 162.871 48.6641 163.429 48.3088C163.988 47.9536 164.438 47.3975 164.749 46.6561C165.059 45.9146 165.214 44.957 165.214 43.7676C165.214 41.9604 164.857 40.6629 164.159 39.8752C163.46 39.0874 162.56 38.6858 161.489 38.6858C160.76 38.6858 160.108 38.8557 159.549 39.211C158.974 39.5663 158.54 40.1069 158.214 40.8483C157.888 41.5897 157.733 42.5628 157.733 43.7676C157.733 45.5439 158.09 46.8414 158.788 47.6446C159.487 48.4478 160.402 48.8494 161.505 48.8494H161.489Z" fill="#F8F8FA"/>
<path d="M183.87 61.289C182.411 61.289 180.999 61.1037 179.633 60.7484C178.267 60.3931 177.025 59.8062 175.923 58.9875C175.706 58.8485 175.566 58.6786 175.504 58.4624C175.442 58.2461 175.426 58.0453 175.488 57.8445C175.535 57.6437 175.644 57.4584 175.799 57.3039C175.954 57.1494 176.125 57.0413 176.327 57.0259C176.528 57.0104 176.746 57.0259 176.963 57.1494C178.158 57.9217 179.291 58.4778 180.393 58.7867C181.496 59.0957 182.629 59.2501 183.824 59.2501C185.795 59.2501 187.301 58.7095 188.325 57.6128C189.35 56.5161 189.862 54.9715 189.862 52.9481V47.9435H190.266C189.862 49.6117 188.993 50.9092 187.673 51.8514C186.354 52.7936 184.786 53.2724 182.97 53.2724C181.154 53.2724 179.586 52.8554 178.267 52.0367C176.947 51.2181 175.923 50.0751 175.209 48.6077C174.495 47.1403 174.138 45.4412 174.138 43.5104C174.138 42.0585 174.34 40.7455 174.743 39.5562C175.147 38.3668 175.737 37.3474 176.513 36.4824C177.289 35.6174 178.205 34.9532 179.291 34.4898C180.378 34.0264 181.604 33.7793 182.986 33.7793C184.802 33.7793 186.37 34.2581 187.689 35.2158C189.008 36.1735 189.862 37.4555 190.25 39.0774L189.847 39.3245V35.1695C189.847 34.737 189.955 34.4126 190.173 34.1963C190.39 33.9801 190.685 33.872 191.057 33.872C191.461 33.872 191.771 33.9801 191.973 34.1963C192.175 34.4126 192.284 34.737 192.284 35.1695V52.6082C192.284 55.4812 191.585 57.6592 190.173 59.1265C188.76 60.5939 186.68 61.3199 183.933 61.3199L183.87 61.289ZM183.219 51.1563C184.569 51.1563 185.733 50.8474 186.727 50.2141C187.72 49.5808 188.481 48.7003 189.024 47.5573C189.567 46.4143 189.831 45.055 189.831 43.495C189.831 41.1471 189.241 39.2936 188.046 37.9189C186.851 36.5442 185.252 35.8645 183.219 35.8645C181.868 35.8645 180.688 36.1735 179.695 36.7913C178.702 37.4092 177.925 38.2896 177.398 39.4326C176.87 40.5756 176.606 41.9349 176.606 43.495C176.606 45.8274 177.196 47.6963 178.391 49.0865C179.586 50.4767 181.185 51.1717 183.219 51.1717V51.1563Z" fill="#B6E7FC"/>
<path d="M204.559 54.023C203.1 54.023 201.89 53.7604 200.912 53.2198C199.934 52.6791 199.204 51.9068 198.723 50.9028C198.242 49.8988 197.993 48.6477 197.993 47.1648V36.1053H194.998C194.641 36.1053 194.361 36.0127 194.144 35.8428C193.927 35.6729 193.818 35.4257 193.818 35.1013C193.818 34.8079 193.927 34.5762 194.144 34.3908C194.361 34.2209 194.641 34.1282 194.998 34.1282H197.993V29.0773C197.993 28.6448 198.102 28.3359 198.319 28.1351C198.537 27.9343 198.847 27.8262 199.251 27.8262C199.623 27.8262 199.934 27.9343 200.151 28.1351C200.368 28.3359 200.477 28.6448 200.477 29.0773V34.1282H205.956C206.329 34.1282 206.624 34.2209 206.81 34.3908C206.996 34.5607 207.09 34.8079 207.09 35.1013C207.09 35.4257 206.996 35.6729 206.81 35.8428C206.624 36.0127 206.329 36.1053 205.956 36.1053H200.477V46.8405C200.477 48.4778 200.818 49.7289 201.486 50.5939C202.153 51.4589 203.287 51.8914 204.854 51.8914C205.398 51.8914 205.848 51.8296 206.22 51.706C206.577 51.5825 206.888 51.5207 207.136 51.5207C207.322 51.5207 207.493 51.5979 207.648 51.7678C207.804 51.9377 207.866 52.1849 207.866 52.5401C207.866 52.7564 207.819 52.9726 207.726 53.1889C207.633 53.4051 207.462 53.5441 207.214 53.5905C206.919 53.6986 206.515 53.7913 206.003 53.8994C205.491 53.9921 205.01 54.0384 204.59 54.0384L204.559 54.023Z" fill="#B6E7FC"/>
<path d="M213.769 53.8694C213.086 53.8694 212.558 53.6686 212.154 53.2361C211.751 52.8191 211.549 52.2939 211.549 51.6452C211.549 50.9964 211.751 50.4712 212.154 50.0542C212.558 49.6371 213.101 49.4209 213.769 49.4209C214.436 49.4209 214.979 49.6217 215.367 50.0542C215.755 50.4712 215.957 50.9964 215.957 51.6452C215.957 52.2939 215.755 52.8191 215.367 53.2361C214.979 53.6532 214.436 53.8694 213.769 53.8694Z" fill="white"/>
<path d="M228.075 54.0661C226.104 54.0661 224.397 53.6336 222.969 52.7686C221.541 51.9036 220.438 50.6988 219.662 49.1542C218.886 47.6095 218.514 45.8178 218.514 43.7634C218.514 42.2034 218.731 40.7978 219.166 39.5621C219.6 38.3264 220.237 37.276 221.075 36.3956C221.913 35.5151 222.922 34.851 224.102 34.403C225.281 33.9396 226.616 33.7234 228.091 33.7234C229.069 33.7234 230.078 33.8778 231.133 34.1713C232.189 34.4648 233.151 34.9745 234.021 35.7005C234.284 35.8859 234.471 36.1176 234.548 36.3801C234.626 36.6427 234.626 36.9053 234.548 37.1679C234.471 37.4305 234.331 37.6467 234.145 37.8166C233.958 37.9865 233.726 38.0947 233.431 38.1256C233.136 38.1565 232.856 38.0638 232.561 37.8475C231.863 37.3069 231.133 36.9362 230.404 36.72C229.674 36.5037 228.976 36.3956 228.293 36.3956C227.237 36.3956 226.321 36.5655 225.53 36.9053C224.738 37.2451 224.086 37.724 223.543 38.3418C223 38.9597 222.596 39.732 222.301 40.6433C222.022 41.5546 221.882 42.6204 221.882 43.8252C221.882 46.173 222.441 48.0111 223.543 49.3704C224.645 50.7297 226.228 51.4093 228.293 51.4093C228.976 51.4093 229.659 51.3012 230.388 51.0849C231.118 50.8687 231.832 50.498 232.561 49.9574C232.856 49.7411 233.136 49.6484 233.415 49.6793C233.679 49.7102 233.912 49.8029 234.098 49.9883C234.284 50.1736 234.424 50.3899 234.486 50.6525C234.548 50.915 234.548 51.1776 234.471 51.4402C234.393 51.7028 234.207 51.919 233.943 52.1044C233.074 52.7995 232.127 53.3092 231.102 53.6181C230.078 53.927 229.069 54.0815 228.106 54.0815L228.075 54.0661Z" fill="white"/>
<path d="M244.667 54.0815C242.743 54.0815 241.082 53.6645 239.685 52.8304C238.272 51.9963 237.186 50.8224 236.425 49.2932C235.649 47.7795 235.276 45.9722 235.276 43.9024C235.276 42.3424 235.494 40.9368 235.928 39.6856C236.363 38.4345 236.999 37.3687 237.838 36.4728C238.676 35.5769 239.669 34.9127 240.818 34.4339C241.967 33.9551 243.255 33.7234 244.698 33.7234C246.623 33.7234 248.284 34.1404 249.681 34.9745C251.094 35.8086 252.18 36.9825 252.941 38.5117C253.717 40.0254 254.105 41.8327 254.105 43.9024C254.105 45.4625 253.888 46.8681 253.453 48.1038C253.018 49.3395 252.382 50.4053 251.544 51.3166C250.706 52.2125 249.712 52.9076 248.564 53.371C247.415 53.8344 246.127 54.0815 244.683 54.0815H244.667ZM244.667 51.4557C245.878 51.4557 246.949 51.1622 247.865 50.5598C248.781 49.9728 249.495 49.1078 249.992 47.9803C250.488 46.8527 250.737 45.4934 250.737 43.9024C250.737 41.4619 250.193 39.5775 249.091 38.2955C247.989 36.998 246.515 36.3647 244.652 36.3647C243.41 36.3647 242.339 36.6582 241.423 37.2297C240.523 37.8166 239.809 38.6507 239.312 39.7783C238.815 40.9059 238.567 42.2806 238.567 43.9179C238.567 46.343 239.126 48.1965 240.228 49.5094C241.33 50.8069 242.805 51.4711 244.652 51.4711L244.667 51.4557Z" fill="white"/>
<path d="M259.107 54.0043C258.564 54.0043 258.16 53.8498 257.896 53.5563C257.632 53.2629 257.493 52.8458 257.493 52.3052V35.4688C257.493 34.9282 257.632 34.5266 257.896 34.2331C258.16 33.9551 258.564 33.8161 259.076 33.8161C259.588 33.8161 259.992 33.9551 260.271 34.2331C260.551 34.5111 260.69 34.9282 260.69 35.4688V39.0214L260.24 38.4499C260.752 36.9362 261.591 35.7777 262.739 34.9591C263.888 34.1404 265.254 33.7234 266.853 33.7234C268.529 33.7234 269.895 34.125 270.935 34.9127C271.975 35.7005 272.674 36.9362 273.031 38.6044H272.425C272.906 37.0907 273.791 35.9013 275.048 35.0363C276.306 34.1559 277.765 33.7234 279.441 33.7234C280.931 33.7234 282.158 34.0014 283.12 34.5729C284.083 35.1444 284.797 35.994 285.293 37.137C285.774 38.28 286.023 39.732 286.023 41.4774V52.2897C286.023 52.8304 285.883 53.2474 285.604 53.5409C285.324 53.8344 284.905 53.9888 284.362 53.9888C283.819 53.9888 283.446 53.8344 283.167 53.5409C282.887 53.2474 282.748 52.8304 282.748 52.2897V41.6319C282.748 39.8246 282.437 38.4963 281.816 37.6622C281.195 36.8281 280.14 36.3956 278.65 36.3956C277.035 36.3956 275.747 36.9516 274.816 38.0638C273.884 39.1759 273.419 40.6896 273.419 42.605V52.2897C273.419 52.8304 273.279 53.2474 273 53.5409C272.72 53.8344 272.301 53.9888 271.758 53.9888C271.214 53.9888 270.842 53.8344 270.563 53.5409C270.283 53.2474 270.143 52.8304 270.143 52.2897V41.6319C270.143 39.8246 269.817 38.4963 269.197 37.6622C268.56 36.8126 267.52 36.3956 266.046 36.3956C264.431 36.3956 263.143 36.9516 262.211 38.0638C261.28 39.1759 260.814 40.6896 260.814 42.605V52.2897C260.814 53.4173 260.256 53.9888 259.154 53.9888L259.107 54.0043Z" fill="white"/>
</g>
<defs>
<clipPath id="clip0_488_39522">
<rect width="286" height="81" fill="white"/>
</clipPath>
</defs>
</svg>
