<svg width="716" height="204" viewBox="0 0 716 204" fill="none" xmlns="http://www.w3.org/2000/svg">
<g clip-path="url(#clip0_824_5645)">
<path d="M97.3362 193.208C150.553 193.208 193.694 149.962 193.694 96.6156C193.694 43.269 150.553 0.0229492 97.3362 0.0229492C44.1191 0.0229492 0.978027 43.269 0.978027 96.6156C0.978027 149.962 44.1191 193.208 97.3362 193.208Z" fill="#FDC114"/>
<path d="M97.414 74.215C79.0582 74.215 64.1174 59.2379 64.1174 40.8764C64.1174 22.5148 79.0582 7.49878 97.414 7.49878C115.77 7.49878 130.711 22.4759 130.711 40.8375C130.711 59.199 115.77 74.1761 97.414 74.1761V74.215ZM97.414 18.6246C85.1897 18.6246 75.2163 28.5834 75.2163 40.8375C75.2163 53.0915 85.1897 63.0503 97.414 63.0503C109.638 63.0503 119.612 53.0915 119.612 40.8375C119.612 28.5834 109.638 18.6246 97.414 18.6246Z" fill="#252A61"/>
<path d="M97.3389 69.1075C107.739 54.0137 126.794 47.0114 144.722 52.6132C139.755 49.3844 133.818 47.5171 127.492 47.5171H67.2245C60.899 47.5171 54.9615 49.3844 49.9941 52.6132C67.9231 47.0114 86.9774 54.0137 97.3777 69.1075H97.3389Z" fill="#57C2EF"/>
<path d="M159.542 93.1567C159.232 68.4152 129.893 56.7059 112.896 73.7837C107.928 78.7631 104.863 85.6098 104.863 93.1567V119.337C104.863 123.5 101.525 126.845 97.3729 126.845C93.2206 126.845 89.8832 123.5 89.8832 119.337V93.1567C89.8832 69.1155 60.5837 56.3946 43.2369 73.7837C38.2696 78.7631 35.2039 85.6098 35.2039 93.1567V126.962C35.2039 144.623 49.6401 159.095 67.2586 159.095H127.526C143.903 159.095 159.581 143.962 159.581 126.962V93.1567H159.542Z" fill="#BEE6F4"/>
<path d="M62.4831 113.808C73.8638 113.808 83.0897 104.56 83.0897 93.1514C83.0897 81.743 73.8638 72.4946 62.4831 72.4946C51.1024 72.4946 41.8765 81.743 41.8765 93.1514C41.8765 104.56 51.1024 113.808 62.4831 113.808Z" fill="#252A61"/>
<path d="M132.177 113.808C143.558 113.808 152.784 104.56 152.784 93.1514C152.784 81.743 143.558 72.4946 132.177 72.4946C120.796 72.4946 111.571 81.743 111.571 93.1514C111.571 104.56 120.796 113.808 132.177 113.808Z" fill="#252A61"/>
<path d="M143.866 85.5329C146.116 85.5329 147.941 83.7041 147.941 81.4482C147.941 79.1923 146.116 77.3635 143.866 77.3635C141.615 77.3635 139.791 79.1923 139.791 81.4482C139.791 83.7041 141.615 85.5329 143.866 85.5329Z" fill="white"/>
<path d="M152.058 182.406C156.21 182.406 159.548 185.752 159.548 189.914C159.548 194.077 156.21 197.422 152.058 197.422H42.6216C38.4693 197.422 35.1318 194.077 35.1318 189.914C35.1318 185.752 38.4693 182.406 42.6216 182.406H152.019H152.058Z" fill="#252A61"/>
<path d="M73.3094 196.515C73.3094 200.677 69.972 204.023 65.8196 204.023C61.6672 204.023 58.3298 200.677 58.3298 196.515V183.249C58.3298 179.087 61.6672 175.741 65.8196 175.741C69.972 175.741 73.3094 179.087 73.3094 183.249V196.515Z" fill="#252A61"/>
<path d="M88.2589 196.515C88.2589 200.677 84.9215 204.023 80.7691 204.023C76.6167 204.023 73.2793 200.677 73.2793 196.515V183.249C73.2793 179.087 76.6167 175.741 80.7691 175.741C84.9215 175.741 88.2589 179.087 88.2589 183.249V196.515Z" fill="#252A61"/>
<path d="M121.399 196.515C121.399 200.677 118.062 204.023 113.909 204.023C109.757 204.023 106.42 200.677 106.42 196.515V183.249C106.42 179.087 109.757 175.741 113.909 175.741C118.062 175.741 121.399 179.087 121.399 183.249V196.515Z" fill="#252A61"/>
<path d="M136.334 196.515C136.334 200.677 132.997 204.023 128.845 204.023C124.692 204.023 121.355 200.677 121.355 196.515V183.249C121.355 179.087 124.692 175.741 128.845 175.741C132.997 175.741 136.334 179.087 136.334 183.249V196.515Z" fill="#252A61"/>
<path d="M74.2129 85.5329C76.4634 85.5329 78.2877 83.7041 78.2877 81.4482C78.2877 79.1923 76.4634 77.3635 74.2129 77.3635C71.9625 77.3635 70.1382 79.1923 70.1382 81.4482C70.1382 83.7041 71.9625 85.5329 74.2129 85.5329Z" fill="white"/>
<path d="M173.937 72.3534C171.802 58.8545 163.924 47.223 152.864 40.0651H152.515C145.103 35.1635 136.41 32.2458 127.484 32.2458H67.2169C58.2525 32.2458 49.5985 35.1635 42.1863 40.0651H41.837C30.777 47.223 22.8991 58.8545 20.7647 72.3534C20.3767 74.6486 20.1826 77.0216 20.1826 79.3946V127.01C20.1826 152.374 42.6908 174.159 67.2169 174.159H127.484C152.011 174.159 174.519 152.374 174.519 127.01V79.3946C174.519 77.0216 174.325 74.6486 173.937 72.3534ZM97.3701 69.1635C87.0862 54.2642 68.3423 47.223 50.6074 52.4747C52.0821 51.5021 53.5956 50.6852 55.1867 49.9461C58.9122 48.39 62.9869 47.5731 67.2557 47.5731H127.523C131.792 47.5731 135.906 48.4289 139.67 49.985C141.222 50.6852 142.736 51.541 144.172 52.4747C126.437 47.223 107.654 54.2253 97.3701 69.1635ZM159.578 127.01C159.578 144.01 143.861 159.143 127.523 159.143H67.2557C50.8791 159.143 35.201 144.01 35.201 127.01V93.2047C35.5114 68.4632 64.8497 56.7539 81.8472 73.8317C86.8145 78.8111 89.8803 85.6578 89.8803 93.2047V119.385C89.8803 123.548 93.2177 126.893 97.3701 126.893C101.522 126.893 104.86 123.548 104.86 119.385V93.2047C104.86 85.6578 107.926 78.8111 112.893 73.8317C129.929 56.7539 159.229 68.4632 159.539 93.2047V127.01H159.578Z" fill="#252A61"/>
<path d="M239.209 136.427C235.367 136.427 231.914 135.493 228.925 133.626C225.898 131.759 223.919 129.308 222.988 126.273L224.113 122.111V127.09C224.113 130.086 223.337 132.342 221.824 133.898C220.31 135.454 218.137 136.232 215.265 136.232C212.394 136.232 210.143 135.454 208.629 133.898C207.116 132.342 206.34 130.086 206.34 127.09V71.8889C206.34 68.8935 207.116 66.6372 208.668 65.0812C210.22 63.5251 212.432 62.7471 215.265 62.7471C218.098 62.7471 220.427 63.5251 222.018 65.0812C223.609 66.6372 224.385 68.8935 224.385 71.8889V93.6349H223.182C224.191 90.8729 226.17 88.5777 229.158 86.8272C232.146 85.0766 235.484 84.1819 239.209 84.1819C243.556 84.1819 247.32 85.2322 250.619 87.3329C253.878 89.4336 256.44 92.429 258.264 96.2803C260.088 100.132 261.019 104.839 261.019 110.324C261.019 115.809 260.088 120.321 258.264 124.251C256.44 128.18 253.878 131.214 250.619 133.315C247.32 135.415 243.517 136.466 239.209 136.466V136.427ZM233.543 123.122C235.367 123.122 236.958 122.656 238.356 121.761C239.753 120.827 240.839 119.466 241.654 117.598C242.469 115.731 242.857 113.319 242.857 110.324C242.857 105.772 241.965 102.505 240.218 100.521C238.472 98.5366 236.221 97.5251 233.543 97.5251C231.719 97.5251 230.09 97.953 228.693 98.8478C227.257 99.7425 226.17 101.104 225.355 102.971C224.54 104.839 224.152 107.289 224.152 110.324C224.152 114.797 225.045 118.065 226.791 120.088C228.537 122.111 230.827 123.122 233.582 123.122H233.543Z" fill="#252A61"/>
<path d="M283.797 136.414C279.451 136.414 275.919 135.597 273.164 134.041C270.409 132.446 268.313 130.073 266.916 126.883C265.519 123.693 264.821 119.647 264.821 114.785V93.4276C264.821 90.4322 265.597 88.1759 267.149 86.6587C268.701 85.1416 270.952 84.3635 273.824 84.3635C276.696 84.3635 278.946 85.1416 280.499 86.6587C282.051 88.1759 282.827 90.4322 282.827 93.4276V115.29C282.827 117.741 283.332 119.569 284.341 120.775C285.35 121.981 286.941 122.604 289.114 122.604C291.559 122.604 293.538 121.709 295.09 119.958C296.642 118.208 297.419 115.874 297.419 112.956V93.4276C297.419 90.4322 298.195 88.1759 299.747 86.6587C301.299 85.1416 303.55 84.3635 306.422 84.3635C309.294 84.3635 311.544 85.1416 313.097 86.6587C314.649 88.1759 315.425 90.4322 315.425 93.4276V127.077C315.425 133.185 312.515 136.219 306.693 136.219C303.861 136.219 301.649 135.441 300.096 133.885C298.544 132.329 297.768 130.073 297.768 127.077V121.164L299.398 126.144C297.923 129.45 295.827 132.018 293.15 133.769C290.472 135.519 287.329 136.414 283.681 136.414H283.797Z" fill="#252A61"/>
<path d="M330.953 136.232C328.12 136.232 325.908 135.454 324.356 133.898C322.804 132.342 322.028 130.086 322.028 127.09V71.8889C322.028 68.8935 322.804 66.6372 324.356 65.0812C325.908 63.5251 328.12 62.7471 330.953 62.7471C333.786 62.7471 336.115 63.5251 337.706 65.0812C339.297 66.6372 340.073 68.8935 340.073 71.8889V94.0629H338.443C340.073 90.8729 342.363 88.4221 345.389 86.7494C348.378 85.0766 351.831 84.2208 355.673 84.2208C359.515 84.2208 362.93 84.9988 365.492 86.516C368.053 88.0331 369.993 90.4061 371.274 93.6349C372.555 96.8638 373.214 100.91 373.214 105.772V127.129C373.214 130.125 372.438 132.381 370.886 133.937C369.334 135.493 367.083 136.271 364.211 136.271C361.339 136.271 359.088 135.493 357.536 133.937C355.984 132.381 355.208 130.125 355.208 127.129V106.511C355.208 103.477 354.664 101.299 353.617 100.015C352.569 98.7311 351.017 98.0697 348.999 98.0697C346.282 98.0697 344.148 98.9256 342.518 100.676C340.888 102.427 340.073 104.722 340.073 107.64V127.168C340.073 133.276 337.046 136.31 330.953 136.31V136.232Z" fill="#252A61"/>
<path d="M404.684 136.416C399.134 136.416 394.322 135.366 390.17 133.265C386.056 131.164 382.835 128.13 380.546 124.201C378.256 120.272 377.092 115.643 377.092 110.274C377.092 106.228 377.752 102.572 379.032 99.3429C380.313 96.114 382.176 93.3909 384.62 91.0957C387.065 88.8394 389.976 87.0889 393.352 85.9218C396.728 84.7548 400.531 84.1323 404.723 84.1323C410.272 84.1323 415.084 85.1827 419.236 87.2834C423.389 89.384 426.571 92.3795 428.822 96.2696C431.073 100.16 432.237 104.828 432.237 110.235C432.237 114.242 431.577 117.86 430.296 121.128C429.016 124.395 427.153 127.158 424.786 129.414C422.38 131.67 419.469 133.421 416.054 134.588C412.639 135.755 408.875 136.377 404.761 136.377L404.684 136.416ZM404.684 123.112C406.508 123.112 408.138 122.645 409.535 121.75C410.932 120.855 412.057 119.455 412.833 117.588C413.609 115.72 413.997 113.309 413.997 110.313C413.997 105.762 413.105 102.494 411.359 100.51C409.612 98.5259 407.361 97.5145 404.684 97.5145C402.86 97.5145 401.23 97.9424 399.833 98.8371C398.397 99.7319 397.31 101.093 396.495 102.961C395.68 104.828 395.292 107.279 395.292 110.313C395.292 114.787 396.185 118.055 397.931 120.077C399.678 122.1 401.967 123.112 404.723 123.112H404.684Z" fill="#252A61"/>
<path d="M460.643 154.43C456.995 154.43 453.463 153.963 450.048 153.068C446.633 152.173 443.529 150.695 440.773 148.633C440.23 148.283 439.881 147.855 439.726 147.311C439.57 146.766 439.532 146.26 439.687 145.755C439.803 145.249 440.075 144.782 440.463 144.393C440.851 144.004 441.278 143.732 441.782 143.693C442.287 143.654 442.83 143.693 443.373 144.004C446.362 145.949 449.195 147.35 451.95 148.128C454.705 148.906 457.538 149.295 460.526 149.295C465.455 149.295 469.219 147.933 471.78 145.171C474.342 142.409 475.622 138.519 475.622 133.423V120.819H476.631C475.622 125.02 473.449 128.288 470.15 130.661C466.852 133.034 462.932 134.24 458.392 134.24C453.851 134.24 449.932 133.189 446.633 131.128C443.335 129.066 440.773 126.187 438.988 122.492C437.203 118.796 436.311 114.517 436.311 109.654C436.311 105.997 436.815 102.691 437.824 99.6952C438.833 96.6998 440.308 94.1323 442.248 91.9538C444.188 89.7753 446.478 88.1025 449.195 86.9355C451.911 85.7684 454.977 85.146 458.431 85.146C462.971 85.146 466.891 86.3519 470.189 88.7638C473.488 91.1757 475.622 94.4046 476.592 98.4892L475.583 99.1117V88.6471C475.583 87.5579 475.855 86.741 476.398 86.1963C476.942 85.6517 477.679 85.3794 478.61 85.3794C479.619 85.3794 480.395 85.6517 480.9 86.1963C481.404 86.741 481.676 87.5579 481.676 88.6471V132.567C481.676 139.803 479.93 145.288 476.398 148.984C472.867 152.679 467.667 154.508 460.798 154.508L460.643 154.43ZM459.013 128.91C462.389 128.91 465.3 128.132 467.783 126.537C470.267 124.942 472.168 122.725 473.527 119.846C474.885 116.968 475.545 113.544 475.545 109.615C475.545 103.702 474.07 99.0339 471.082 95.5716C468.094 92.1094 464.096 90.3977 459.013 90.3977C455.637 90.3977 452.687 91.1757 450.204 92.7318C447.72 94.2879 445.779 96.5053 444.46 99.384C443.141 102.263 442.481 105.686 442.481 109.615C442.481 115.489 443.956 120.196 446.944 123.697C449.932 127.199 453.929 128.949 459.013 128.949V128.91Z" fill="#57C2EF"/>
<path d="M512.37 136.142C508.722 136.142 505.695 135.481 503.25 134.119C500.805 132.758 498.981 130.813 497.778 128.284C496.575 125.755 495.955 122.604 495.955 118.87V91.0163H488.465C487.572 91.0163 486.874 90.7829 486.33 90.355C485.787 89.927 485.515 89.3046 485.515 88.4877C485.515 87.7486 485.787 87.165 486.33 86.6982C486.874 86.2703 487.572 86.0369 488.465 86.0369H495.955V73.3161C495.955 72.2268 496.226 71.4488 496.769 70.9431C497.313 70.4373 498.089 70.165 499.098 70.165C500.029 70.165 500.805 70.4373 501.349 70.9431C501.892 71.4488 502.164 72.2268 502.164 73.3161V86.0369H515.863C516.794 86.0369 517.531 86.2703 517.997 86.6982C518.463 87.1261 518.696 87.7486 518.696 88.4877C518.696 89.3046 518.463 89.927 517.997 90.355C517.531 90.7829 516.794 91.0163 515.863 91.0163H502.164V118.053C502.164 122.176 503.017 125.328 504.686 127.506C506.355 129.684 509.188 130.774 513.107 130.774C514.466 130.774 515.591 130.618 516.522 130.307C517.415 129.996 518.191 129.84 518.812 129.84C519.278 129.84 519.705 130.035 520.093 130.463C520.481 130.89 520.636 131.513 520.636 132.408C520.636 132.952 520.519 133.497 520.287 134.041C520.054 134.586 519.627 134.936 519.006 135.053C518.269 135.325 517.26 135.559 515.979 135.831C514.698 136.064 513.495 136.181 512.448 136.181L512.37 136.142Z" fill="#57C2EF"/>
<path d="M535.391 135.73C533.683 135.73 532.364 135.224 531.355 134.135C530.346 133.084 529.842 131.762 529.842 130.128C529.842 128.494 530.346 127.171 531.355 126.121C532.364 125.071 533.722 124.526 535.391 124.526C537.06 124.526 538.418 125.032 539.388 126.121C540.358 127.171 540.863 128.494 540.863 130.128C540.863 131.762 540.358 133.084 539.388 134.135C538.418 135.185 537.06 135.73 535.391 135.73Z" fill="#010101"/>
<path d="M571.171 136.235C566.243 136.235 561.974 135.146 558.404 132.968C554.833 130.789 552.078 127.755 550.138 123.865C548.197 119.974 547.266 115.462 547.266 110.288C547.266 106.359 547.809 102.819 548.896 99.7068C549.983 96.5946 551.574 93.9493 553.669 91.7319C555.765 89.5145 558.287 87.8418 561.237 86.7136C564.186 85.5466 567.523 85.002 571.21 85.002C573.655 85.002 576.177 85.391 578.816 86.1301C581.455 86.8692 583.861 88.153 586.034 89.9814C586.694 90.4482 587.16 91.0317 587.354 91.693C587.548 92.3544 587.548 93.0157 587.354 93.677C587.16 94.3383 586.811 94.883 586.345 95.3109C585.879 95.7388 585.297 96.0111 584.56 96.0889C583.822 96.1667 583.124 95.9333 582.387 95.3887C580.64 94.0271 578.816 93.0935 576.992 92.5489C575.168 92.0042 573.422 91.7319 571.715 91.7319C569.076 91.7319 566.786 92.1598 564.807 93.0157C562.828 93.8715 561.198 95.0775 559.84 96.6335C558.481 98.1896 557.472 100.135 556.735 102.43C556.037 104.725 555.687 107.409 555.687 110.444C555.687 116.357 557.084 120.986 559.84 124.409C562.595 127.833 566.553 129.544 571.715 129.544C573.422 129.544 575.13 129.272 576.954 128.727C578.778 128.183 580.563 127.249 582.387 125.888C583.124 125.343 583.822 125.11 584.521 125.187C585.181 125.265 585.763 125.499 586.228 125.965C586.694 126.432 587.043 126.977 587.199 127.638C587.354 128.299 587.354 128.961 587.16 129.622C586.966 130.283 586.5 130.828 585.84 131.295C583.667 133.045 581.3 134.329 578.739 135.107C576.177 135.885 573.655 136.274 571.249 136.274L571.171 136.235Z" fill="#252A61"/>
<path d="M612.654 136.245C607.842 136.245 603.69 135.194 600.197 133.094C596.666 130.993 593.949 128.036 592.048 124.185C590.107 120.373 589.176 115.821 589.176 110.609C589.176 106.68 589.719 103.139 590.806 99.9884C591.893 96.8374 593.484 94.1532 595.579 91.8969C597.675 89.6406 600.158 87.9678 603.03 86.7619C605.902 85.5559 609.123 84.9724 612.732 84.9724C617.544 84.9724 621.696 86.0228 625.189 88.1234C628.721 90.2241 631.437 93.1807 633.339 97.0319C635.279 100.844 636.249 105.396 636.249 110.609C636.249 114.538 635.706 118.078 634.619 121.19C633.533 124.302 631.942 126.986 629.846 129.281C627.75 131.538 625.267 133.288 622.395 134.455C619.523 135.622 616.302 136.245 612.693 136.245H612.654ZM612.654 129.631C615.681 129.631 618.359 128.892 620.649 127.375C622.938 125.897 624.723 123.718 625.965 120.879C627.207 118.039 627.828 114.615 627.828 110.609C627.828 104.462 626.47 99.7161 623.714 96.4873C620.959 93.2195 617.272 91.6246 612.616 91.6246C609.511 91.6246 606.833 92.3637 604.544 93.8031C602.293 95.2813 600.508 97.382 599.266 100.222C598.024 103.062 597.403 106.524 597.403 110.647C597.403 116.755 598.8 121.423 601.555 124.73C604.311 127.998 607.997 129.67 612.616 129.67L612.654 129.631Z" fill="#252A61"/>
<path d="M648.74 136.05C647.382 136.05 646.373 135.661 645.713 134.922C645.054 134.183 644.704 133.133 644.704 131.771V89.3683C644.704 88.0067 645.054 86.9953 645.713 86.2562C646.373 85.5559 647.382 85.2058 648.663 85.2058C649.943 85.2058 650.952 85.5559 651.651 86.2562C652.349 86.9564 652.699 88.0067 652.699 89.3683V98.3157L651.573 96.8763C652.854 93.0639 654.949 90.1463 657.821 88.0845C660.693 86.0228 664.108 84.9724 668.105 84.9724C672.296 84.9724 675.711 85.9839 678.311 87.9678C680.911 89.9518 682.658 93.0639 683.55 97.2653H682.037C683.24 93.453 685.452 90.4575 688.595 88.279C691.739 86.0617 695.387 84.9724 699.578 84.9724C703.303 84.9724 706.369 85.6726 708.775 87.112C711.181 88.5514 712.966 90.6909 714.208 93.5697C715.411 96.4484 716.032 100.105 716.032 104.501V131.732C716.032 133.094 715.683 134.144 714.984 134.883C714.286 135.622 713.238 136.011 711.88 136.011C710.521 136.011 709.59 135.622 708.891 134.883C708.193 134.144 707.844 133.094 707.844 131.732V104.89C707.844 100.339 707.067 96.993 705.515 94.8923C703.963 92.7916 701.324 91.7024 697.598 91.7024C693.563 91.7024 690.342 93.1028 688.013 95.9038C685.685 98.7047 684.52 102.517 684.52 107.341V131.732C684.52 133.094 684.171 134.144 683.473 134.883C682.774 135.622 681.726 136.011 680.368 136.011C679.01 136.011 678.079 135.622 677.38 134.883C676.681 134.144 676.332 133.094 676.332 131.732V104.89C676.332 100.339 675.517 96.993 673.965 94.8923C672.374 92.7527 669.774 91.7024 666.087 91.7024C662.051 91.7024 658.83 93.1028 656.502 95.9038C654.173 98.7047 653.009 102.517 653.009 107.341V131.732C653.009 134.572 651.612 136.011 648.857 136.011L648.74 136.05Z" fill="#252A61"/>
</g>
<defs>
<clipPath id="clip0_824_5645">
<rect width="716" height="204" fill="white"/>
</clipPath>
</defs>
</svg>
