<?xml version="1.0" encoding="UTF-8"?>
<svg id="Capa_2" data-name="Capa 2" xmlns="http://www.w3.org/2000/svg" xmlns:xlink="http://www.w3.org/1999/xlink" viewBox="0 0 612.29 176.83">
  <defs>
    <style>
      .cls-1 {
        fill: #2b5b50;
      }

      .cls-2 {
        fill: #fff;
      }

      .cls-3 {
        fill: #6bbff1;
      }

      .cls-4 {
        fill: #95c336;
      }

      .cls-5 {
        fill: #5ba678;
      }

      .cls-6 {
        fill: #b1d22e;
      }

      .cls-7 {
        fill: #f9eb34;
      }

      .cls-8 {
        fill: #6db147;
      }

      .cls-9 {
        fill: #47819c;
      }

      .cls-10 {
        fill: #0aadba;
      }

      .cls-11 {
        fill: #457dc5;
      }

      .cls-12 {
        fill: #70b554;
      }

      .cls-13 {
        clip-path: url(#clippath-2);
      }

      .cls-14 {
        fill: #e2903c;
      }

      .cls-15 {
        stroke: #1d1d1b;
        stroke-miterlimit: 10;
      }

      .cls-15, .cls-16 {
        fill: none;
      }

      .cls-17 {
        clip-path: url(#clippath-1);
      }

      .cls-18 {
        fill: #4a8f45;
      }

      .cls-19 {
        fill: #62b55c;
      }

      .cls-20 {
        fill: #adcb34;
      }

      .cls-21 {
        clip-path: url(#clippath);
      }

      .cls-22 {
        fill: #fe8511;
      }

      .cls-23 {
        fill: #3b6d8b;
      }

      .cls-24 {
        fill: #512b7b;
      }

      .cls-25 {
        fill: #bfd42e;
      }

      .cls-26 {
        fill: #9ccb41;
      }

      .cls-27 {
        fill: #4f9347;
      }

      .cls-28 {
        fill: #509847;
      }

      .cls-29 {
        fill: #aacd31;
      }

      .cls-30 {
        fill: #59a848;
      }

      .cls-31 {
        fill: #3b773b;
      }

      .cls-32 {
        fill: #081936;
      }

      .cls-33 {
        fill: #8cc43d;
      }
    </style>
    <clipPath id="clippath">
      <path class="cls-16" d="m152.16,20.85s-10.99,14.24-21.95,15.04c-10.96.8-18.4-4.73-24.71-6.95-6.31-2.22-15.65-3.36-20.53-3.21h-.55c-33.55,0-60.75,27.2-60.75,60.75,0,27.29,18,50.38,42.77,58.05,1.03.29,29.84,8.12,47.74-7.89,5.53-5.2,11.31-13.1,11.4-23.45.18-19.91-12.98-29.86-24.88-30.04-11.91-.18-22.57,7.35-20.26,22.43,2.31,15.08,19.02,9.57,19.46,3.26,0,0-5.33,1.47-7.33-4.53-2-6,3.87-8.6,6.47-9,2.6-.4,8.46-.13,12.46,8,4,8.13-.87,21.86-21.33,27.86-20.46,6-47.06-17.97-41.9-46.95,0,0,1.48-1.41,4.5-3.43-.17-.05-.34-.09-.47-.12-2.81-.5-5.74.84-8.7,4.01-2.43,2.6-3.9,5.45-3.92,5.48l-4.1,7.97.07-8.96c.09-11.25,5.2-21.69,12.42-25.39,4.16-2.13,8.62-1.77,12.55,1.02,3.26,2.31,5.65,5.23,7.03,8.51.58-.22,1.17-.43,1.77-.64.18-7.68,3.22-13.93,8.29-15.61,5.72-1.89,12.32,2.59,16.47,10.46.63-.05,1.27-.11,1.92-.15-1.18-1.73-2.24-3.54-3.13-5.43-1.52-3.19-.57-6.84,2.31-8.88,2.35-1.67,5.89-1,6.92-.76,1.16.27,3.96,1.13,5.06,3.19,2.45,4.61,4.91,8.56,7.21,11.93.92.07,1.84.14,2.78.22h0c5.61,4.29,14.13,8.24,22.81,8.48,12.89.36,24.8-2.31,29.06-4.89,0,0-.09-4.62-2.58-9.69,0,0,1.24-6.49-.18-15.38-1.25-7.8-3.46-26.49-10.83-26.49-1.03,0-2.15.36-3.39,1.16"/>
    </clipPath>
    <clipPath id="clippath-1">
      <path class="cls-16" d="m78.53,60.13c-3.88,1.29-6.23,6.09-6.48,12.14,5.39-1.76,11.83-3.25,19.38-4.03-2.9-5.18-6.99-8.44-10.84-8.44-.7,0-1.39.11-2.06.33"/>
    </clipPath>
    <clipPath id="clippath-2">
      <path class="cls-16" d="m0,86.03c0,47.51,38.52,86.03,86.03,86.03,20.43,0,39.19-7.12,53.94-19.02l21.1,21.1h.02c1.61,1.65,3.87,2.68,6.36,2.68,4.9,0,8.88-3.97,8.88-8.88,0-2.65-1.17-5.02-3.01-6.64l-20.74-20.74c12.18-14.84,19.49-33.83,19.49-54.53,0-3.95-.27-7.83-.79-11.64-5.83,3.86-13.71,5.53-17.14,6.1.15,1.83.23,3.67.23,5.54,0,37.74-30.6,68.34-68.34,68.34S17.7,123.78,17.7,86.03,48.29,17.7,86.03,17.7c15.17,0,29.19,4.95,40.52,13.31,9.81-1.94,15.56-6.05,17.93-8.1C129.14,8.69,108.6,0,86.03,0,38.52,0,0,38.52,0,86.03"/>
    </clipPath>
  </defs>
  <g id="Capa_1-2" data-name="Capa 1">
    <path class="cls-2" d="m569.29,134.93c-3.5,0-6.17-1.02-8-3.05-1.83-2.03-2.75-4.96-2.75-8.79v-38.59c0-3.82.92-6.76,2.75-8.79,1.83-2.03,4.5-3.05,8-3.05s6.21,1.02,8.12,3.05c1.91,2.03,2.87,4.97,2.87,8.79v38.59c0,3.83-.94,6.76-2.81,8.79-1.87,2.03-4.6,3.05-8.18,3.05"/>
    <path class="cls-2" d="m216.79,134.93c-3.26,0-5.76-.9-7.51-2.69-1.75-1.79-2.62-4.31-2.62-7.57V56.91c0-3.34.93-5.88,2.81-7.63,1.87-1.75,4.52-2.62,7.94-2.62,2.77,0,5.01.55,6.71,1.65,1.71,1.1,3.26,2.91,4.64,5.43l24.05,43.35,24.06-43.35c1.46-2.52,3.03-4.33,4.7-5.43,1.67-1.1,3.92-1.65,6.78-1.65,3.17,0,5.66.88,7.45,2.62,1.79,1.75,2.69,4.3,2.69,7.63v67.77c0,3.26-.86,5.78-2.56,7.57-1.71,1.79-4.23,2.69-7.57,2.69s-5.76-.9-7.51-2.69c-1.75-1.79-2.62-4.31-2.62-7.57v-37.61l-17.09,29.79c-1.14,1.79-2.34,3.14-3.6,4.03-1.26.9-2.95,1.34-5.07,1.34s-3.71-.45-5.01-1.34c-1.3-.9-2.48-2.24-3.54-4.03l-16.97-29.3v37.12c0,3.26-.85,5.78-2.56,7.57-1.71,1.79-4.23,2.69-7.57,2.69"/>
    <path class="cls-2" d="m339.87,135.18c-6.68,0-12.5-1.26-17.46-3.79-4.97-2.52-8.83-6.14-11.6-10.87-2.77-4.72-4.15-10.3-4.15-16.73s1.38-12.11,4.15-16.79c2.77-4.68,6.63-8.28,11.6-10.8,4.96-2.52,10.79-3.79,17.46-3.79s12.49,1.26,17.46,3.79c4.96,2.52,8.81,6.13,11.54,10.8,2.73,4.68,4.09,10.28,4.09,16.79s-1.36,12.01-4.09,16.73c-2.73,4.72-6.58,8.34-11.54,10.87-4.97,2.52-10.79,3.79-17.46,3.79m0-16c3.25,0,5.94-1.22,8.06-3.66,2.12-2.44,3.17-6.35,3.17-11.72s-1.06-9.38-3.17-11.78c-2.12-2.4-4.8-3.6-8.06-3.6s-6.07,1.2-8.18,3.6c-2.12,2.4-3.17,6.33-3.17,11.78s1.06,9.28,3.17,11.72c2.12,2.44,4.84,3.66,8.18,3.66"/>
    <path class="cls-2" d="m390.54,134.93c-3.5,0-6.17-.94-8-2.81-1.83-1.87-2.75-4.6-2.75-8.18v-40.42c0-7.24,3.54-10.87,10.62-10.87,6.43,0,9.93,3.09,10.5,9.28,1.79-2.93,4.25-5.25,7.39-6.96,3.13-1.71,6.78-2.56,10.93-2.56s7.59.9,10.56,2.69c2.97,1.79,5.23,4.56,6.78,8.3,2.03-3.5,4.8-6.21,8.3-8.12,3.5-1.91,7.36-2.87,11.6-2.87,7,0,12.19,2.1,15.57,6.29,3.38,4.19,5.07,10.73,5.07,19.6v25.64c0,3.58-.96,6.31-2.87,8.18-1.91,1.87-4.62,2.81-8.12,2.81s-6.06-.94-7.94-2.81c-1.87-1.87-2.81-4.6-2.81-8.18v-25.03c0-3.5-.53-6.02-1.59-7.57-1.06-1.54-2.81-2.32-5.25-2.32-3.01,0-5.31,1.06-6.9,3.17-1.59,2.12-2.38,5.13-2.38,9.04v22.71c0,3.58-.94,6.31-2.81,8.18-1.88,1.87-4.56,2.81-8.06,2.81s-6.19-.94-8.06-2.81c-1.87-1.87-2.81-4.6-2.81-8.18v-25.03c0-3.5-.53-6.02-1.59-7.57-1.06-1.54-2.81-2.32-5.25-2.32-2.93,0-5.19,1.06-6.78,3.17-1.59,2.12-2.38,5.13-2.38,9.04v22.71c0,7.33-3.66,10.99-10.99,10.99"/>
    <path class="cls-2" d="m525.82,135.18c-3.99,0-7.63-.85-10.93-2.56-3.3-1.71-5.76-3.99-7.39-6.84-.65,6.1-4.15,9.16-10.5,9.16-7.16,0-10.74-3.66-10.74-10.99V57.65c0-7.33,3.58-10.99,10.74-10.99,3.5,0,6.21.94,8.12,2.81,1.91,1.87,2.87,4.6,2.87,8.18v23.32c1.71-2.6,4.17-4.68,7.39-6.23,3.21-1.54,6.69-2.32,10.44-2.32,5.21,0,9.79,1.26,13.74,3.79,3.95,2.52,7.02,6.13,9.22,10.8,2.2,4.68,3.3,10.28,3.3,16.79s-1.12,12.01-3.36,16.73c-2.24,4.72-5.33,8.34-9.28,10.87-3.95,2.52-8.48,3.79-13.61,3.79m-6.84-16c3.25,0,5.94-1.22,8.06-3.66,2.12-2.44,3.17-6.35,3.17-11.72s-1.06-9.38-3.17-11.78c-2.12-2.4-4.8-3.6-8.06-3.6s-6.07,1.2-8.18,3.6c-2.12,2.4-3.17,6.33-3.17,11.78s1.06,9.28,3.17,11.72c2.12,2.44,4.84,3.66,8.18,3.66"/>
    <path class="cls-22" d="m569.29,63.99c-3.83,0-6.78-.89-8.85-2.69-2.07-1.79-3.11-4.4-3.11-7.82s1.04-5.9,3.11-7.69c2.08-1.79,5.03-2.69,8.85-2.69,8.06,0,12.09,3.46,12.09,10.38,0,3.42-1.04,6.03-3.11,7.82-2.08,1.79-5.07,2.69-8.97,2.69"/>
    <path class="cls-6" d="m569.31,63.98c-3.83,0-6.78-.89-8.85-2.69-2.07-1.79-3.11-4.4-3.11-7.82s1.04-5.9,3.11-7.69c2.08-1.79,5.03-2.69,8.85-2.69,8.06,0,12.09,3.46,12.09,10.38,0,3.42-1.04,6.03-3.11,7.82-2.08,1.79-5.07,2.69-8.97,2.69"/>
    <path class="cls-6" d="m600.2,63.98c-3.83,0-6.78-.89-8.85-2.69-2.07-1.79-3.11-4.4-3.11-7.82s1.04-5.9,3.11-7.69c2.08-1.79,5.03-2.69,8.85-2.69,8.06,0,12.09,3.46,12.09,10.38,0,3.42-1.04,6.03-3.11,7.82-2.08,1.79-5.07,2.69-8.97,2.69"/>
    <path class="cls-2" d="m600.18,134.93c-3.5,0-6.17-1.02-8-3.05-1.83-2.03-2.75-4.96-2.75-8.79v-38.59c0-3.82.92-6.76,2.75-8.79,1.83-2.03,4.5-3.05,8-3.05s6.21,1.02,8.12,3.05c1.91,2.03,2.87,4.97,2.87,8.79v38.59c0,3.83-.94,6.76-2.81,8.79-1.87,2.03-4.6,3.05-8.18,3.05"/>
    <g class="cls-21">
      <path class="cls-14" d="m172.79,72.31s-9.33-30.39-39.73-42.66l21.6-20,22.66,19.2-4.53,43.46Z"/>
      <path class="cls-7" d="m175.45,80.04s-9.07-37.86-42.39-50.39l-16.26,1.87h-2.93s21.06,25.86,61.59,48.52"/>
      <path class="cls-29" d="m60.01,29.65s24.79,2.13,35.46,25.2l13.06,4.13s-12.26-31.73-12.8-40.26l-35.73,10.93Z"/>
      <path class="cls-28" d="m172.79,72.31s-51.99,20.76-73.85-23.22l2.3-10.25,23.03,9.72,48.52,23.74Z"/>
      <path class="cls-6" d="m93.07,24.85s10.66,23.73,23.46,32.53c12.8,8.8,39.99,14.66,56.26,14.93,0,0-54.92-48.79-79.72-47.46"/>
      <path class="cls-33" d="m42.14,36.05s29.33,7.08,55.72,38.6l3.6-17.91s-19.59-28.43-45.46-27.09l-13.86,6.4Z"/>
      <path class="cls-19" d="m95.74,74.65s-16-29.27-53.59-38.6l-6.93,12.52s26.66,10.41,31.73,17.61c5.07,7.2,9.33,13.86,9.33,13.86l19.46-5.39Z"/>
      <path class="cls-30" d="m25.01,65.12s6.99-.78,16.18,10.87l27.44,1.21,4.11-2.55s-3.38-15.98-37.52-26.08l-10.2,16.55Z"/>
      <path class="cls-18" d="m21.39,85.57s12.81.91,17.08,5.44c0,0,1.68-5.31,9.58-5.44l1.55-4.92-8.8-3.45.39-1.21s-4.01-8.41-16.18-10.87l-3.62,20.45Z"/>
      <path class="cls-31" d="m23.46,104.95s12,3.78,25.42-2.17l1.76-16.18-2.59-1.04s-6.74-.52-9.32,4.85c0,0-8.28-4.2-17.34-4.85l2.07,19.39Z"/>
      <path class="cls-1" d="m33.55,126.6s10.61,2.59,25.5-8.28c0,0-7.28-4.66-10.18-15.53,0,0-6.26,4.34-26.06,2.17l10.74,21.64Z"/>
      <path class="cls-23" d="m60.01,145.49s8.88-6.99,9-19.93l-9.96-7.25s-4.27,4.03-20.84,8.55c0,0,7.62,14.87,21.8,18.63"/>
      <path class="cls-9" d="m84.27,128.28s1.57,12.43-2.7,21.23l-21.56-4.01s8.36-9.19,9.01-19.93l15.26,2.72Z"/>
      <path class="cls-5" d="m94.64,126.86s9.51,7.11,6.82,17.72l-19.9,4.92s5.02-12.55,2.7-21.23l10.37-1.41Z"/>
      <path class="cls-27" d="m105.12,144.07s3.11-9.71-7.77-20.06l-2.72,2.86s8.99,7.5,6.82,17.72l3.66-.52Z"/>
      <path class="cls-12" d="m105.77,120.12l-6.83,5.48s6.62,5.52,6.6,17.17l12.14-4.59s-3.12-11.07-11.91-18.06"/>
      <path class="cls-26" d="m109.14,111.19s5.82.52,16.44,9.45l-7.89,18.25s-2.01-8.66-11.91-18.77l3.37-8.93Z"/>
      <path class="cls-25" d="m114.84,85.55l-12.18-3.91-6.93-.27-10.58,2.84s10.66,8.53,10.58,13.86l13.4,13.11s8.33,3.13,16.44,9.45l1.27-21.14-12-13.95Z"/>
      <path class="cls-4" d="m85.16,84.22l-6.49,11.63s10.75,4.55,14.4,5.43l2.67-3.2s1.16-7.55-10.58-13.86"/>
      <path class="cls-8" d="m100.45,108.21l-7.38-6.93s-10.66-4.74-14.4-5.43l-.8,11.83s5.16,8.27,5.42,8.35c.27.09,11.35,1.07,11.35,1.07l6.43-7.55-.62-1.33Z"/>
    </g>
    <g class="cls-17">
      <path class="cls-14" d="m172.06,72.49s-9.26-30.15-39.41-42.32l21.42-19.84,22.48,19.04-4.5,43.11Z"/>
      <path class="cls-7" d="m174.71,80.16s-8.99-37.56-42.05-49.99l-16.13,1.85h-2.91s20.9,25.65,61.1,48.14"/>
      <path class="cls-29" d="m60.18,30.17s24.6,2.12,35.18,24.99l12.96,4.1s-12.17-31.47-12.7-39.94l-35.44,10.84Z"/>
      <path class="cls-28" d="m172.06,72.49s-51.58,20.59-73.26-23.03l2.28-10.16,22.85,9.64,48.14,23.55Z"/>
      <path class="cls-6" d="m92.98,25.41s10.58,23.54,23.27,32.27c12.7,8.73,39.67,14.55,55.81,14.81,0,0-54.48-48.4-79.08-47.08"/>
      <path class="cls-33" d="m41.65,36.9s30.81,7.44,58.53,40.55l3.78-18.81s-20.58-29.86-47.74-28.46l-14.56,6.72Z"/>
      <path class="cls-33" d="m46.41,46.26s30.81,7.44,58.53,40.55l3.78-18.81s-20.58-29.86-47.74-28.46l-14.56,6.72Z"/>
      <path class="cls-19" d="m95.62,74.81s-15.87-29.04-53.16-38.29l-6.88,12.42s26.45,10.33,31.47,17.47c5.03,7.14,9.26,13.75,9.26,13.75l19.31-5.35Z"/>
      <path class="cls-30" d="m25.46,65.36s6.93-.77,16.05,10.79l27.22,1.2,4.08-2.53s-3.35-15.85-37.22-25.88l-10.12,16.42Z"/>
      <path class="cls-18" d="m21.87,85.65s12.71.9,16.95,5.39c0,0,1.67-5.26,9.5-5.39l1.54-4.88-8.73-3.42.39-1.2s-3.98-8.35-16.05-10.78l-3.59,20.29Z"/>
      <path class="cls-31" d="m23.92,104.88s11.91,3.75,25.21-2.15l1.75-16.05-2.57-1.03s-6.68-.52-9.25,4.81c0,0-8.21-4.17-17.2-4.81l2.05,19.23Z"/>
      <path class="cls-1" d="m33.94,126.35s10.53,2.57,25.29-8.22c0,0-7.22-4.62-10.09-15.41,0,0-6.21,4.31-25.86,2.15l10.66,21.47Z"/>
      <path class="cls-23" d="m60.18,145.09s8.8-6.93,8.93-19.77l-9.89-7.19s-4.24,4-20.67,8.48c0,0,7.55,14.76,21.62,18.48"/>
      <path class="cls-9" d="m84.25,128.02s1.56,12.33-2.68,21.06l-21.39-3.98s8.29-9.12,8.93-19.77l15.14,2.7Z"/>
      <path class="cls-5" d="m94.54,126.62s9.43,7.05,6.77,17.58l-19.74,4.88s4.98-12.45,2.68-21.06l10.29-1.4Z"/>
      <path class="cls-27" d="m104.94,143.68s3.08-9.63-7.7-19.9l-2.7,2.83s8.92,7.44,6.77,17.58l3.63-.51Z"/>
      <path class="cls-12" d="m105.57,119.93l-6.78,5.44s6.57,5.47,6.55,17.03l12.05-4.55s-3.09-10.98-11.82-17.92"/>
      <path class="cls-26" d="m108.92,111.07s5.78.51,16.31,9.37l-7.83,18.1s-1.99-8.59-11.82-18.62l3.34-8.86Z"/>
      <path class="cls-25" d="m114.58,85.63l-12.08-3.88-6.88-.27-10.49,2.82s10.58,8.46,10.49,13.75l13.29,13.01s8.26,3.1,16.31,9.37l1.26-20.97-11.9-13.84Z"/>
      <path class="cls-4" d="m85.13,84.31l-6.44,11.54s10.67,4.51,14.28,5.39l2.64-3.17s1.15-7.49-10.49-13.75"/>
      <path class="cls-8" d="m100.3,108.11l-7.32-6.88s-10.58-4.7-14.28-5.39l-.79,11.74s5.11,8.2,5.38,8.29c.27.09,11.26,1.06,11.26,1.06l6.38-7.49-.62-1.32Z"/>
    </g>
    <path class="cls-32" d="m150.16,52.12c0,5.98-4.85,10.84-10.84,10.84s-10.83-4.85-10.83-10.84,4.85-10.83,10.83-10.83,10.84,4.85,10.84,10.83"/>
    <path class="cls-2" d="m145.65,49.2c0,2.7-2.19,4.89-4.89,4.89s-4.89-2.19-4.89-4.89,2.19-4.89,4.89-4.89,4.89,2.19,4.89,4.89"/>
    <path class="cls-15" d="m145.65,49.2c0,2.7-2.19,4.89-4.89,4.89s-4.89-2.19-4.89-4.89,2.19-4.89,4.89-4.89,4.89,2.19,4.89,4.89Z"/>
    <path class="cls-10" d="m105.35,56.49c10.74,20.19,21.37,27.81,19.15,29.38-2.22,1.57-21.87-8.54-29.64-24.85-.98-2.06-.6-4.65,1.62-6.22,2.22-1.57,7.79-.32,8.87,1.7"/>
    <path class="cls-10" d="m37.74,89.18s6.21-12.17,14.88-10.61c8.67,1.55-5.44,16.18,7.25,22.65,0,0-1.81-7,3.11-11.39,4.92-4.4,6.6-16.04-3.62-23.29-10.22-7.25-21.48,6.34-21.61,22.65"/>
    <g class="cls-13">
      <polygon class="cls-20" points="22.35 4.59 122.36 103.23 165.25 9.38 107.66 -29.54 22.35 4.59"/>
      <polygon class="cls-11" points="139.12 117.63 251.64 214.68 198.31 240.81 49.01 179.22 139.12 117.63"/>
      <polygon class="cls-3" points="22.35 4.59 139.12 117.63 49.01 179.22 -14.98 98.43 22.35 4.59"/>
      <polygon class="cls-24" points="150.32 75.18 192.98 66.97 171.65 145.69 139.12 117.63 150.32 75.18"/>
    </g>
  </g>
</svg>