<svg width="161" height="46" viewBox="0 0 161 46" fill="none" xmlns="http://www.w3.org/2000/svg">
<g clip-path="url(#clip0_206_2)">
<mask id="mask0_206_2" style="mask-type:luminance" maskUnits="userSpaceOnUse" x="0" y="0" width="161" height="46">
<path d="M160.163 0H0V45.6424H160.163V0Z" fill="white"/>
</mask>
<g mask="url(#mask0_206_2)">
<path d="M21.584 43.2276C33.5045 43.2276 43.168 33.5519 43.168 21.6162C43.168 9.68062 33.5045 0.00488281 21.584 0.00488281C9.66349 0.00488281 0 9.68062 0 21.6162C0 33.5519 9.66349 43.2276 21.584 43.2276Z" fill="#FDC114"/>
<path d="M21.6019 16.6046C17.4902 16.6046 14.1436 13.2537 14.1436 9.14554C14.1436 5.03737 17.4902 1.67773 21.6019 1.67773C25.7136 1.67773 29.0602 5.02867 29.0602 9.13683C29.0602 13.245 25.7136 16.5959 21.6019 16.5959V16.6046ZM21.6019 4.167C18.8637 4.167 16.6297 6.39516 16.6297 9.13683C16.6297 11.8785 18.8637 14.1067 21.6019 14.1067C24.3401 14.1067 26.5741 11.8785 26.5741 9.13683C26.5741 6.39516 24.3401 4.167 21.6019 4.167Z" fill="#252A61"/>
<path d="M21.5846 15.4614C23.9142 12.0844 28.1824 10.5177 32.1984 11.771C31.0857 11.0486 29.7557 10.6309 28.3388 10.6309H14.8391C13.4221 10.6309 12.0922 11.0486 10.9795 11.771C14.9955 10.5177 19.2636 12.0844 21.5933 15.4614H21.5846Z" fill="#57C2EF"/>
<path d="M35.5175 20.8421C35.4479 15.3065 28.8762 12.6867 25.0688 16.5077C23.9562 17.6217 23.2694 19.1536 23.2694 20.8421V26.6997C23.2694 27.631 22.5219 28.3795 21.5917 28.3795C20.6616 28.3795 19.914 27.631 19.914 26.6997V20.8421C19.914 15.4632 13.351 12.6171 9.46541 16.5077C8.35274 17.6217 7.66602 19.1536 7.66602 20.8421V28.4057C7.66602 32.3572 10.8997 35.5949 14.8462 35.5949H28.346C32.0143 35.5949 35.5261 32.2092 35.5261 28.4057V20.8421H35.5175Z" fill="#BEE6F4"/>
<path d="M13.777 25.4631C16.3262 25.4631 18.3928 23.3939 18.3928 20.8414C18.3928 18.2889 16.3262 16.2197 13.777 16.2197C11.2277 16.2197 9.16113 18.2889 9.16113 20.8414C9.16113 23.3939 11.2277 25.4631 13.777 25.4631Z" fill="#252A61"/>
<path d="M29.3883 25.4631C31.9375 25.4631 34.0041 23.3939 34.0041 20.8414C34.0041 18.2889 31.9375 16.2197 29.3883 16.2197C26.839 16.2197 24.7725 18.2889 24.7725 20.8414C24.7725 23.3939 26.839 25.4631 29.3883 25.4631Z" fill="#252A61"/>
<path d="M32.0065 19.1364C32.5106 19.1364 32.9192 18.7272 32.9192 18.2225C32.9192 17.7178 32.5106 17.3086 32.0065 17.3086C31.5024 17.3086 31.0938 17.7178 31.0938 18.2225C31.0938 18.7272 31.5024 19.1364 32.0065 19.1364Z" fill="white"/>
<path d="M33.8415 40.8105C34.7716 40.8105 35.5192 41.5591 35.5192 42.4904C35.5192 43.4217 34.7716 44.1702 33.8415 44.1702H9.32808C8.39796 44.1702 7.65039 43.4217 7.65039 42.4904C7.65039 41.5591 8.39796 40.8105 9.32808 40.8105H33.8328H33.8415Z" fill="white"/>
<path d="M16.2021 43.9671C16.2021 44.8984 15.4545 45.6469 14.5244 45.6469C13.5943 45.6469 12.8467 44.8984 12.8467 43.9671V40.9992C12.8467 40.0679 13.5943 39.3193 14.5244 39.3193C15.4545 39.3193 16.2021 40.0679 16.2021 40.9992V43.9671Z" fill="#252A61"/>
<path d="M19.5507 43.9671C19.5507 44.8984 18.8031 45.6469 17.873 45.6469C16.9429 45.6469 16.1953 44.8984 16.1953 43.9671V40.9992C16.1953 40.0679 16.9429 39.3193 17.873 39.3193C18.8031 39.3193 19.5507 40.0679 19.5507 40.9992V43.9671Z" fill="#252A61"/>
<path d="M26.9736 43.9671C26.9736 44.8984 26.226 45.6469 25.2959 45.6469C24.3657 45.6469 23.6182 44.8984 23.6182 43.9671V40.9992C23.6182 40.0679 24.3657 39.3193 25.2959 39.3193C26.226 39.3193 26.9736 40.0679 26.9736 40.9992V43.9671Z" fill="#252A61"/>
<path d="M30.3193 43.9671C30.3193 44.8984 29.5717 45.6469 28.6416 45.6469C27.7114 45.6469 26.9639 44.8984 26.9639 43.9671V40.9992C26.9639 40.0679 27.7114 39.3193 28.6416 39.3193C29.5717 39.3193 30.3193 40.0679 30.3193 40.9992V43.9671Z" fill="#252A61"/>
<path d="M16.4049 19.1364C16.909 19.1364 17.3177 18.7272 17.3177 18.2225C17.3177 17.7178 16.909 17.3086 16.4049 17.3086C15.9008 17.3086 15.4922 17.7178 15.4922 18.2225C15.4922 18.7272 15.9008 19.1364 16.4049 19.1364Z" fill="white"/>
<path d="M38.7423 16.1874C38.2642 13.1672 36.4996 10.5648 34.0221 8.96332H33.9439C32.2836 7.86665 30.3364 7.21387 28.3371 7.21387H14.8373C12.8293 7.21387 10.8908 7.86665 9.23053 8.96332H9.15229C6.67487 10.5648 4.91025 13.1672 4.43215 16.1874C4.34522 16.7009 4.30176 17.2319 4.30176 17.7628V28.4162C4.30176 34.091 9.34353 38.9651 14.8373 38.9651H28.3371C33.8309 38.9651 38.8727 34.091 38.8727 28.4162V17.7628C38.8727 17.2319 38.8292 16.7009 38.7423 16.1874ZM21.5916 15.4737C19.288 12.1402 15.0894 10.5648 11.1168 11.7398C11.4472 11.5222 11.7862 11.3394 12.1426 11.1741C12.9771 10.8259 13.8898 10.6431 14.846 10.6431H28.3458C29.302 10.6431 30.2234 10.8346 31.0666 11.1828C31.4143 11.3394 31.7533 11.5309 32.075 11.7398C28.1024 10.5648 23.8951 12.1315 21.5916 15.4737ZM35.526 28.4162C35.526 32.2197 32.0054 35.6054 28.3458 35.6054H14.846C11.1777 35.6054 7.66584 32.2197 7.66584 28.4162V20.8526C7.73538 15.317 14.3071 12.6972 18.1145 16.5182C19.2271 17.6322 19.9139 19.1641 19.9139 20.8526V26.7102C19.9139 27.6415 20.6614 28.39 21.5916 28.39C22.5217 28.39 23.2693 27.6415 23.2693 26.7102V20.8526C23.2693 19.1641 23.956 17.6322 25.0686 16.5182C28.8847 12.6972 35.4477 15.317 35.5173 20.8526V28.4162H35.526Z" fill="#252A61"/>
<path d="M53.3627 30.5239C52.5021 30.5239 51.7285 30.315 51.0592 29.8973C50.3811 29.4795 49.9378 28.9311 49.7292 28.2523L49.9813 27.321V28.435C49.9813 29.1052 49.8074 29.61 49.4684 29.9582C49.1294 30.3063 48.6426 30.4804 47.9993 30.4804C47.3561 30.4804 46.8519 30.3063 46.5129 29.9582C46.1739 29.61 46 29.1052 46 28.435V16.0844C46 15.4143 46.1739 14.9094 46.5216 14.5613C46.8693 14.2131 47.3648 14.0391 47.9993 14.0391C48.6339 14.0391 49.1555 14.2131 49.5119 14.5613C49.8683 14.9094 50.0421 15.4143 50.0421 16.0844V20.9498H49.7726C49.9986 20.3319 50.442 19.8183 51.1113 19.4267C51.7807 19.035 52.5282 18.8348 53.3627 18.8348C54.3363 18.8348 55.1795 19.0698 55.9184 19.5398C56.6486 20.0098 57.2223 20.68 57.6309 21.5417C58.0394 22.4033 58.248 23.4565 58.248 24.6837C58.248 25.911 58.0394 26.9206 57.6309 27.7997C57.2223 28.6787 56.6486 29.3576 55.9184 29.8276C55.1795 30.2976 54.3276 30.5326 53.3627 30.5326V30.5239ZM52.0936 27.5473C52.5021 27.5473 52.8585 27.4428 53.1715 27.2426C53.4844 27.0337 53.7278 26.7291 53.9104 26.3113C54.0929 25.8935 54.1798 25.3539 54.1798 24.6837C54.1798 23.6654 53.9799 22.9343 53.5887 22.4904C53.1976 22.0465 52.6934 21.8202 52.0936 21.8202C51.685 21.8202 51.3199 21.9159 51.007 22.1161C50.6854 22.3163 50.442 22.6209 50.2594 23.0387C50.0769 23.4565 49.99 24.0048 49.99 24.6837C49.99 25.6847 50.1899 26.4158 50.5811 26.8684C50.9722 27.321 51.4851 27.5473 52.1023 27.5473H52.0936Z" fill="white"/>
<path d="M63.3503 30.5216C62.3768 30.5216 61.5857 30.3388 60.9685 29.9906C60.3514 29.6338 59.882 29.1029 59.569 28.3892C59.2561 27.6754 59.0996 26.7703 59.0996 25.6823V20.9039C59.0996 20.2338 59.2735 19.7289 59.6212 19.3895C59.9689 19.0501 60.4731 18.876 61.1163 18.876C61.7596 18.876 62.2638 19.0501 62.6115 19.3895C62.9592 19.7289 63.133 20.2338 63.133 20.9039V25.7954C63.133 26.3438 63.246 26.7529 63.472 27.0227C63.6981 27.2925 64.0545 27.4317 64.5412 27.4317C65.0889 27.4317 65.5322 27.2316 65.8799 26.8399C66.2276 26.4482 66.4015 25.926 66.4015 25.2732V20.9039C66.4015 20.2338 66.5753 19.7289 66.923 19.3895C67.2708 19.0501 67.7749 18.876 68.4182 18.876C69.0615 18.876 69.5656 19.0501 69.9133 19.3895C70.2611 19.7289 70.4349 20.2338 70.4349 20.9039V28.4327C70.4349 29.7992 69.783 30.478 68.479 30.478C67.8445 30.478 67.349 30.304 67.0013 29.9558C66.6536 29.6077 66.4797 29.1029 66.4797 28.4327V27.1097L66.8448 28.2238C66.5145 28.9636 66.0451 29.538 65.4453 29.9297C64.8455 30.3214 64.1414 30.5216 63.3243 30.5216H63.3503Z" fill="white"/>
<path d="M73.9134 30.4804C73.2788 30.4804 72.7833 30.3063 72.4356 29.9582C72.0879 29.61 71.9141 29.1052 71.9141 28.435V16.0844C71.9141 15.4143 72.0879 14.9094 72.4356 14.5613C72.7833 14.2131 73.2788 14.0391 73.9134 14.0391C74.5479 14.0391 75.0695 14.2131 75.4259 14.5613C75.7823 14.9094 75.9562 15.4143 75.9562 16.0844V21.0456H75.5911C75.9562 20.3319 76.469 19.7835 77.1471 19.4093C77.8164 19.035 78.5901 18.8435 79.4506 18.8435C80.3112 18.8435 81.0762 19.0176 81.6499 19.357C82.2236 19.6965 82.6582 20.2274 82.9451 20.9498C83.232 21.6722 83.3797 22.5774 83.3797 23.6654V28.4437C83.3797 29.1139 83.2059 29.6187 82.8582 29.9669C82.5105 30.315 82.0063 30.4891 81.363 30.4891C80.7198 30.4891 80.2156 30.315 79.8679 29.9669C79.5202 29.6187 79.3463 29.1139 79.3463 28.4437V23.8308C79.3463 23.1519 79.2246 22.6645 78.9899 22.3772C78.7552 22.09 78.4075 21.942 77.9555 21.942C77.347 21.942 76.8689 22.1335 76.5038 22.5252C76.1387 22.9169 75.9562 23.4304 75.9562 24.0832V28.4524C75.9562 29.8189 75.2781 30.4978 73.9134 30.4978V30.4804Z" fill="white"/>
<path d="M90.4286 30.522C89.1855 30.522 88.1076 30.287 87.1775 29.817C86.2561 29.347 85.5346 28.6681 85.0217 27.7891C84.5088 26.91 84.248 25.8742 84.248 24.6731C84.248 23.7679 84.3958 22.9498 84.6827 22.2274C84.9695 21.505 85.3868 20.8957 85.9344 20.3822C86.4821 19.8774 87.134 19.4857 87.8903 19.2246C88.6466 18.9635 89.4984 18.8242 90.4373 18.8242C91.6803 18.8242 92.7582 19.0592 93.6883 19.5292C94.6185 19.9992 95.3313 20.6694 95.8354 21.5398C96.3396 22.4102 96.6004 23.4546 96.6004 24.6644C96.6004 25.5609 96.4526 26.3704 96.1658 27.1015C95.8789 27.8326 95.4616 28.4505 94.9314 28.9554C94.3924 29.4602 93.7405 29.8518 92.9755 30.113C92.2106 30.3741 91.3674 30.5133 90.446 30.5133L90.4286 30.522ZM90.4286 27.5454C90.8371 27.5454 91.2022 27.4409 91.5152 27.2407C91.8281 27.0405 92.0802 26.7272 92.254 26.3094C92.4279 25.8916 92.5148 25.352 92.5148 24.6818C92.5148 23.6635 92.3149 22.9324 91.9237 22.4885C91.5325 22.0446 91.0284 21.8183 90.4286 21.8183C90.02 21.8183 89.6549 21.914 89.342 22.1142C89.0203 22.3144 88.7769 22.619 88.5944 23.0368C88.4119 23.4546 88.3249 24.0029 88.3249 24.6818C88.3249 25.6828 88.5249 26.4139 88.916 26.8665C89.3072 27.3191 89.8201 27.5454 90.4373 27.5454H90.4286Z" fill="white"/>
<path d="M102.963 34.5521C102.146 34.5521 101.355 34.4477 100.59 34.2475C99.825 34.0473 99.1295 33.7166 98.5124 33.2553C98.3907 33.1769 98.3124 33.0812 98.2777 32.9593C98.2429 32.8375 98.2342 32.7243 98.269 32.6112C98.295 32.498 98.3559 32.3936 98.4428 32.3066C98.5297 32.2195 98.6254 32.1586 98.7384 32.1499C98.8514 32.1412 98.9731 32.1499 99.0948 32.2195C99.7641 32.6547 100.399 32.968 101.016 33.1421C101.633 33.3162 102.268 33.4032 102.937 33.4032C104.041 33.4032 104.884 33.0986 105.458 32.4806C106.032 31.8627 106.318 30.9923 106.318 29.8521V27.0321H106.544C106.318 27.9721 105.832 28.7032 105.093 29.2341C104.354 29.7651 103.476 30.0349 102.459 30.0349C101.442 30.0349 100.564 29.7999 99.825 29.3386C99.0861 28.8773 98.5124 28.2332 98.1125 27.4064C97.7126 26.5795 97.5127 25.6221 97.5127 24.5341C97.5127 23.716 97.6257 22.9762 97.8517 22.306C98.0777 21.6358 98.408 21.0613 98.8427 20.5739C99.2773 20.0865 99.7902 19.7123 100.399 19.4512C101.007 19.19 101.694 19.0508 102.468 19.0508C103.485 19.0508 104.363 19.3206 105.101 19.8602C105.84 20.3999 106.318 21.1223 106.536 22.0362L106.31 22.1754V19.8341C106.31 19.5904 106.371 19.4076 106.492 19.2858C106.614 19.1639 106.779 19.103 106.988 19.103C107.214 19.103 107.388 19.1639 107.501 19.2858C107.614 19.4076 107.674 19.5904 107.674 19.8341V29.6606C107.674 31.2795 107.283 32.5067 106.492 33.3336C105.701 34.1605 104.536 34.5695 102.998 34.5695L102.963 34.5521ZM102.598 28.8425C103.354 28.8425 104.006 28.6684 104.562 28.3115C105.119 27.9547 105.545 27.4586 105.849 26.8145C106.153 26.1704 106.301 25.4045 106.301 24.5254C106.301 23.2025 105.971 22.158 105.301 21.3834C104.632 20.6087 103.737 20.2258 102.598 20.2258C101.842 20.2258 101.181 20.3999 100.625 20.748C100.068 21.0962 99.6337 21.5923 99.3382 22.2363C99.0426 22.8804 98.8948 23.6464 98.8948 24.5254C98.8948 25.8397 99.2252 26.8928 99.8945 27.6762C100.564 28.4595 101.459 28.8512 102.598 28.8512V28.8425Z" fill="#57C2EF"/>
<path d="M114.55 30.4607C113.732 30.4607 113.054 30.3128 112.507 30.0081C111.959 29.7035 111.551 29.2683 111.281 28.7026C111.012 28.1368 110.873 27.4318 110.873 26.5963V20.3644H109.195C108.995 20.3644 108.838 20.3122 108.717 20.2165C108.595 20.1207 108.534 19.9815 108.534 19.7987C108.534 19.6333 108.595 19.5027 108.717 19.3983C108.838 19.3026 108.995 19.2503 109.195 19.2503H110.873V16.4042C110.873 16.1605 110.933 15.9864 111.055 15.8733C111.177 15.7601 111.351 15.6992 111.577 15.6992C111.785 15.6992 111.959 15.7601 112.081 15.8733C112.203 15.9864 112.263 16.1605 112.263 16.4042V19.2503H115.332C115.54 19.2503 115.706 19.3026 115.81 19.3983C115.914 19.494 115.966 19.6333 115.966 19.7987C115.966 19.9815 115.914 20.1207 115.81 20.2165C115.706 20.3122 115.54 20.3644 115.332 20.3644H112.263V26.4135C112.263 27.3361 112.455 28.0411 112.828 28.5285C113.202 29.0159 113.837 29.2596 114.715 29.2596C115.019 29.2596 115.271 29.2248 115.48 29.1552C115.68 29.0856 115.853 29.0507 115.993 29.0507C116.097 29.0507 116.192 29.0943 116.279 29.19C116.366 29.2857 116.401 29.425 116.401 29.6252C116.401 29.747 116.375 29.8689 116.323 29.9907C116.271 30.1126 116.175 30.1909 116.036 30.217C115.871 30.278 115.645 30.3302 115.358 30.3911C115.071 30.4433 114.802 30.4694 114.567 30.4694L114.55 30.4607Z" fill="#57C2EF"/>
<path d="M119.707 30.368C119.324 30.368 119.029 30.2549 118.803 30.0112C118.577 29.7761 118.464 29.4802 118.464 29.1147C118.464 28.7491 118.577 28.4532 118.803 28.2182C119.029 27.9832 119.333 27.8613 119.707 27.8613C120.081 27.8613 120.385 27.9745 120.602 28.2182C120.82 28.4532 120.933 28.7491 120.933 29.1147C120.933 29.4802 120.82 29.7761 120.602 30.0112C120.385 30.2462 120.081 30.368 119.707 30.368Z" fill="#FDC114"/>
<path d="M127.721 30.4814C126.617 30.4814 125.661 30.2377 124.861 29.7503C124.061 29.2628 123.444 28.584 123.009 27.7136C122.575 26.8432 122.366 25.8336 122.366 24.676C122.366 23.7969 122.488 23.0049 122.731 22.3086C122.975 21.6123 123.331 21.0204 123.801 20.5243C124.27 20.0282 124.835 19.6539 125.496 19.4015C126.156 19.1404 126.904 19.0186 127.73 19.0186C128.277 19.0186 128.842 19.1056 129.433 19.271C130.024 19.4363 130.563 19.7236 131.05 20.1326C131.198 20.2371 131.302 20.3676 131.346 20.5156C131.389 20.6636 131.389 20.8115 131.346 20.9595C131.302 21.1074 131.224 21.2293 131.12 21.325C131.015 21.4208 130.885 21.4817 130.72 21.4991C130.555 21.5165 130.398 21.4643 130.233 21.3425C129.842 21.0378 129.433 20.8289 129.025 20.7071C128.616 20.5852 128.225 20.5243 127.843 20.5243C127.252 20.5243 126.739 20.62 126.295 20.8115C125.852 21.003 125.487 21.2728 125.183 21.621C124.878 21.9691 124.652 22.4043 124.487 22.9178C124.331 23.4313 124.253 24.0319 124.253 24.7108C124.253 26.0338 124.565 27.0695 125.183 27.8354C125.8 28.6014 126.686 28.9843 127.843 28.9843C128.225 28.9843 128.608 28.9234 129.016 28.8015C129.425 28.6797 129.825 28.4708 130.233 28.1662C130.398 28.0443 130.555 27.9921 130.711 28.0095C130.859 28.0269 130.989 28.0791 131.094 28.1836C131.198 28.288 131.276 28.4099 131.311 28.5578C131.346 28.7058 131.346 28.8538 131.302 29.0017C131.259 29.1497 131.155 29.2715 131.007 29.376C130.52 29.7677 129.99 30.0549 129.416 30.229C128.842 30.403 128.277 30.4901 127.738 30.4901L127.721 30.4814Z" fill="white"/>
<path d="M137.014 30.4832C135.936 30.4832 135.006 30.2482 134.224 29.7782C133.433 29.3082 132.824 28.6467 132.398 27.7851C131.963 26.9321 131.755 25.9138 131.755 24.7475C131.755 23.8684 131.877 23.0764 132.12 22.3714C132.363 21.6664 132.72 21.0658 133.189 20.561C133.659 20.0562 134.215 19.6819 134.858 19.4121C135.501 19.1423 136.223 19.0117 137.031 19.0117C138.109 19.0117 139.039 19.2467 139.822 19.7167C140.613 20.1867 141.221 20.8482 141.647 21.7099C142.082 22.5628 142.299 23.5812 142.299 24.7475C142.299 25.6266 142.177 26.4186 141.934 27.1149C141.691 27.8112 141.334 28.4117 140.865 28.9253C140.395 29.4301 139.839 29.8218 139.196 30.0829C138.553 30.344 137.831 30.4832 137.023 30.4832H137.014ZM137.014 29.0036C137.692 29.0036 138.292 28.8382 138.805 28.4988C139.318 28.168 139.717 27.6806 139.996 27.0453C140.274 26.4099 140.413 25.644 140.413 24.7475C140.413 23.3723 140.109 22.3104 139.491 21.588C138.874 20.8569 138.048 20.5001 137.005 20.5001C136.31 20.5001 135.71 20.6654 135.197 20.9875C134.693 21.3182 134.293 21.7882 134.015 22.4236C133.737 23.059 133.598 23.8336 133.598 24.7562C133.598 26.1227 133.911 27.1671 134.528 27.9069C135.145 28.638 135.971 29.0123 137.005 29.0123L137.014 29.0036Z" fill="white"/>
<path d="M145.096 30.4397C144.792 30.4397 144.566 30.3527 144.418 30.1873C144.271 30.0219 144.192 29.7869 144.192 29.4823V19.9952C144.192 19.6906 144.271 19.4643 144.418 19.2989C144.566 19.1423 144.792 19.0639 145.079 19.0639C145.366 19.0639 145.592 19.1423 145.748 19.2989C145.905 19.4556 145.983 19.6906 145.983 19.9952V21.9971L145.731 21.6751C146.018 20.8221 146.487 20.1693 147.131 19.708C147.774 19.2467 148.539 19.0117 149.434 19.0117C150.373 19.0117 151.138 19.238 151.72 19.6819C152.303 20.1258 152.694 20.8221 152.894 21.7621H152.555C152.824 20.9091 153.32 20.2389 154.024 19.7515C154.728 19.2554 155.545 19.0117 156.484 19.0117C157.318 19.0117 158.005 19.1684 158.544 19.4904C159.083 19.8125 159.483 20.2912 159.761 20.9352C160.03 21.5793 160.17 22.3975 160.17 23.381V29.4736C160.17 29.7782 160.091 30.0132 159.935 30.1786C159.778 30.344 159.544 30.431 159.239 30.431C158.935 30.431 158.727 30.344 158.57 30.1786C158.414 30.0132 158.335 29.7782 158.335 29.4736V23.468C158.335 22.4497 158.162 21.7012 157.814 21.2312C157.466 20.7612 156.875 20.5175 156.041 20.5175C155.136 20.5175 154.415 20.8308 153.893 21.4575C153.372 22.0841 153.111 22.9371 153.111 24.0164V29.4736C153.111 29.7782 153.033 30.0132 152.876 30.1786C152.72 30.344 152.485 30.431 152.181 30.431C151.877 30.431 151.668 30.344 151.512 30.1786C151.355 30.0132 151.277 29.7782 151.277 29.4736V23.468C151.277 22.4497 151.094 21.7012 150.747 21.2312C150.39 20.7525 149.808 20.5175 148.982 20.5175C148.078 20.5175 147.357 20.8308 146.835 21.4575C146.313 22.0841 146.053 22.9371 146.053 24.0164V29.4736C146.053 30.109 145.74 30.431 145.122 30.431L145.096 30.4397Z" fill="white"/>
</g>
</g>
<defs>
<clipPath id="clip0_206_2">
<rect width="161" height="46" fill="white"/>
</clipPath>
</defs>
</svg>
