<svg width="189" height="60" viewBox="0 0 189 60" fill="none" xmlns="http://www.w3.org/2000/svg">
<g clip-path="url(#clip0_1407_560)">
<path d="M25.4686 56.6338C39.534 56.6338 50.9362 43.9952 50.9362 28.4046C50.9362 12.814 39.534 0.175293 25.4686 0.175293C11.4032 0.175293 0.000976562 12.814 0.000976562 28.4046C0.000976562 43.9952 11.4032 56.6338 25.4686 56.6338Z" fill="#FDC114"/>
<path d="M25.4927 21.8538C20.6412 21.8538 16.6924 17.4768 16.6924 12.1106C16.6924 6.7444 20.6412 2.35596 25.4927 2.35596C30.3442 2.35596 34.293 6.73303 34.293 12.0992C34.293 17.4654 30.3442 21.8425 25.4927 21.8425V21.8538ZM25.4927 5.6075C22.2618 5.6075 19.6258 8.51797 19.6258 12.0992C19.6258 15.6804 22.2618 18.5909 25.4927 18.5909C28.7236 18.5909 31.3596 15.6804 31.3596 12.0992C31.3596 8.51797 28.7236 5.6075 25.4927 5.6075Z" fill="#161933"/>
<path d="M25.4671 20.3645C28.216 15.9533 33.252 13.9069 37.9907 15.544C36.6778 14.6004 35.1085 14.0547 33.4367 14.0547H17.5079C15.836 14.0547 14.2667 14.6004 12.9539 15.544C17.6925 13.9069 22.7286 15.9533 25.4774 20.3645H25.4671Z" fill="#57C2EF"/>
<path d="M41.914 27.3866C41.832 20.1559 34.0778 16.7339 29.5854 21.7249C28.2725 23.1801 27.4622 25.181 27.4622 27.3866V35.038C27.4622 36.2545 26.5801 37.2322 25.4827 37.2322C24.3852 37.2322 23.5031 36.2545 23.5031 35.038V27.3866C23.5031 20.3606 15.7592 16.6429 11.1744 21.7249C9.86156 23.1801 9.05127 25.181 9.05127 27.3866V37.2663C9.05127 42.4278 12.8668 46.6571 17.5234 46.6571H33.4522C37.7805 46.6571 41.9243 42.2346 41.9243 37.2663V27.3866H41.914Z" fill="#BEE6F4"/>
<path d="M16.2528 33.4252C19.2607 33.4252 21.6991 30.7224 21.6991 27.3883C21.6991 24.0542 19.2607 21.3513 16.2528 21.3513C13.2448 21.3513 10.8064 24.0542 10.8064 27.3883C10.8064 30.7224 13.2448 33.4252 16.2528 33.4252Z" fill="#161933"/>
<path d="M34.6761 33.4252C37.684 33.4252 40.1224 30.7224 40.1224 27.3883C40.1224 24.0542 37.684 21.3513 34.6761 21.3513C31.6682 21.3513 29.2297 24.0542 29.2297 27.3883C29.2297 30.7224 31.6682 33.4252 34.6761 33.4252Z" fill="#161933"/>
<path d="M37.7659 25.1648C38.3607 25.1648 38.8429 24.6304 38.8429 23.9711C38.8429 23.3118 38.3607 22.7773 37.7659 22.7773C37.1711 22.7773 36.689 23.3118 36.689 23.9711C36.689 24.6304 37.1711 25.1648 37.7659 25.1648Z" fill="white"/>
<path d="M39.9318 53.4709C41.0293 53.4709 41.9114 54.4487 41.9114 55.6652C41.9114 56.8817 41.0293 57.8594 39.9318 57.8594H11.0076C9.91016 57.8594 9.02808 56.8817 9.02808 55.6652C9.02808 54.4487 9.91016 53.4709 11.0076 53.4709H39.9215H39.9318Z" fill="white"/>
<path d="M19.1161 57.5994C19.1161 58.8159 18.234 59.7936 17.1365 59.7936C16.0391 59.7936 15.157 58.8159 15.157 57.5994V53.7225C15.157 52.5061 16.0391 51.5283 17.1365 51.5283C18.234 51.5283 19.1161 52.5061 19.1161 53.7225V57.5994Z" fill="#161933"/>
<path d="M23.0697 57.5994C23.0697 58.8159 22.1876 59.7936 21.0902 59.7936C19.9927 59.7936 19.1106 58.8159 19.1106 57.5994V53.7225C19.1106 52.5061 19.9927 51.5283 21.0902 51.5283C22.1876 51.5283 23.0697 52.5061 23.0697 53.7225V57.5994Z" fill="#161933"/>
<path d="M31.8258 57.5994C31.8258 58.8159 30.9437 59.7936 29.8463 59.7936C28.7488 59.7936 27.8667 58.8159 27.8667 57.5994V53.7225C27.8667 52.5061 28.7488 51.5283 29.8463 51.5283C30.9437 51.5283 31.8258 52.5061 31.8258 53.7225V57.5994Z" fill="#161933"/>
<path d="M35.7748 57.5994C35.7748 58.8159 34.8927 59.7936 33.7952 59.7936C32.6978 59.7936 31.8157 58.8159 31.8157 57.5994V53.7225C31.8157 52.5061 32.6978 51.5283 33.7952 51.5283C34.8927 51.5283 35.7748 52.5061 35.7748 53.7225V57.5994Z" fill="#161933"/>
<path d="M19.356 25.1648C19.9508 25.1648 20.433 24.6304 20.433 23.9711C20.433 23.3118 19.9508 22.7773 19.356 22.7773C18.7612 22.7773 18.2791 23.3118 18.2791 23.9711C18.2791 24.6304 18.7612 25.1648 19.356 25.1648Z" fill="white"/>
<path d="M45.7121 21.3118C45.148 17.3667 43.0659 13.9674 40.1427 11.8755H40.0504C38.0913 10.443 35.7938 9.59033 33.4347 9.59033H17.5059C15.1366 9.59033 12.8494 10.443 10.8903 11.8755H10.798C7.87481 13.9674 5.79268 17.3667 5.22856 21.3118C5.12599 21.9826 5.07471 22.6761 5.07471 23.3696V37.2853C5.07471 44.6979 11.0236 51.0645 17.5059 51.0645H33.4347C39.917 51.0645 45.866 44.6979 45.866 37.2853V23.3696C45.866 22.6761 45.8147 21.9826 45.7121 21.3118ZM25.4755 20.3795C22.7574 16.0252 17.8034 13.9674 13.116 15.5022C13.5058 15.218 13.9058 14.9792 14.3263 14.7632C15.311 14.3085 16.3879 14.0697 17.5162 14.0697H33.445C34.5732 14.0697 35.6605 14.3198 36.6554 14.7746C37.0656 14.9792 37.4657 15.2294 37.8452 15.5022C33.1578 13.9674 28.1935 16.0138 25.4755 20.3795ZM41.9171 37.2853C41.9171 42.2535 37.7631 46.6761 33.445 46.6761H17.5162C13.1878 46.6761 9.04409 42.2535 9.04409 37.2853V27.4056C9.12614 20.1749 16.8803 16.7528 21.3728 21.7438C22.6856 23.199 23.4959 25.2 23.4959 27.4056V35.0569C23.4959 36.2734 24.378 37.2512 25.4755 37.2512C26.5729 37.2512 27.455 36.2734 27.455 35.0569V27.4056C27.455 25.2 28.2653 23.199 29.5782 21.7438C34.0809 16.7528 41.8248 20.1749 41.9069 27.4056V37.2853H41.9171Z" fill="#161933"/>
<path d="M62.9707 40.0442C61.9553 40.0442 61.0424 39.7713 60.2527 39.2256C59.4526 38.6799 58.9295 37.9636 58.6834 37.0768L58.9808 35.8604V37.3156C58.9808 38.191 58.7757 38.8504 58.3757 39.3052C57.9757 39.7599 57.4013 39.9873 56.6423 39.9873C55.8833 39.9873 55.2884 39.7599 54.8884 39.3052C54.4883 38.8504 54.2832 38.191 54.2832 37.3156V21.183C54.2832 20.3075 54.4883 19.6481 54.8986 19.1934C55.3089 18.7386 55.8935 18.5112 56.6423 18.5112C57.391 18.5112 58.0064 18.7386 58.4269 19.1934C58.8475 19.6481 59.0526 20.3075 59.0526 21.183V27.5382H58.7347C59.0013 26.731 59.5244 26.0603 60.3142 25.5487C61.104 25.037 61.9861 24.7756 62.9707 24.7756C64.1195 24.7756 65.1144 25.0825 65.9862 25.6965C66.8478 26.3104 67.5247 27.1858 68.0068 28.3113C68.4889 29.4369 68.735 30.8125 68.735 32.4155C68.735 34.0186 68.4889 35.3374 68.0068 36.4857C67.5247 37.6339 66.8478 38.5207 65.9862 39.1346C65.1144 39.7486 64.1092 40.0555 62.9707 40.0555V40.0442ZM61.4732 36.1559C61.9553 36.1559 62.3758 36.0195 62.7451 35.758C63.1143 35.4852 63.4015 35.0873 63.6169 34.5415C63.8323 33.9958 63.9348 33.291 63.9348 32.4155C63.9348 31.0854 63.6989 30.1304 63.2374 29.5505C62.7758 28.9707 62.1809 28.6751 61.4732 28.6751C60.9911 28.6751 60.5604 28.8002 60.1911 29.0617C59.8116 29.3232 59.5244 29.7211 59.309 30.2668C59.0936 30.8125 58.9911 31.5288 58.9911 32.4155C58.9911 33.723 59.227 34.678 59.6885 35.2692C60.1501 35.8604 60.7552 36.1559 61.4835 36.1559H61.4732Z" fill="white"/>
<path d="M74.7536 40.0374C73.6048 40.0374 72.6715 39.7987 71.9432 39.3439C71.215 38.8778 70.6611 38.1843 70.2919 37.252C69.9227 36.3198 69.738 35.1374 69.738 33.7163V27.4747C69.738 26.5993 69.9432 25.9398 70.3534 25.4965C70.7637 25.0531 71.3586 24.8257 72.1176 24.8257C72.8766 24.8257 73.4715 25.0531 73.8818 25.4965C74.2921 25.9398 74.4972 26.5993 74.4972 27.4747V33.8641C74.4972 34.5803 74.6305 35.1146 74.8972 35.4671C75.1639 35.8195 75.5844 36.0014 76.1588 36.0014C76.805 36.0014 77.3281 35.7399 77.7383 35.2283C78.1486 34.7167 78.3537 34.0346 78.3537 33.1819V27.4747C78.3537 26.5993 78.5589 25.9398 78.9692 25.4965C79.3794 25.0531 79.9743 24.8257 80.7333 24.8257C81.4923 24.8257 82.0872 25.0531 82.4975 25.4965C82.9078 25.9398 83.1129 26.5993 83.1129 27.4747V37.3089C83.1129 39.0938 82.3436 39.9806 80.8051 39.9806C80.0564 39.9806 79.4717 39.7532 79.0615 39.2984C78.6512 38.8437 78.4461 38.1843 78.4461 37.3089V35.5808L78.8768 37.036C78.4871 38.0024 77.9332 38.7527 77.2255 39.2643C76.5178 39.7759 75.687 40.0374 74.7228 40.0374H74.7536Z" fill="white"/>
<path d="M87.2157 39.9876C86.467 39.9876 85.8824 39.7602 85.4721 39.3054C85.0618 38.8506 84.8567 38.1912 84.8567 37.3158V21.1832C84.8567 20.3078 85.0618 19.6484 85.4721 19.1936C85.8824 18.7389 86.467 18.5115 87.2157 18.5115C87.9645 18.5115 88.5799 18.7389 89.0004 19.1936C89.421 19.6484 89.6261 20.3078 89.6261 21.1832V27.6635H89.1953C89.6261 26.7313 90.2312 26.015 91.0313 25.5262C91.821 25.0373 92.7339 24.7872 93.7493 24.7872C94.7647 24.7872 95.6673 25.0146 96.3443 25.4579C97.0212 25.9013 97.5341 26.5948 97.8726 27.5385C98.211 28.4821 98.3854 29.6645 98.3854 31.0856V37.3272C98.3854 38.2026 98.1803 38.862 97.77 39.3168C97.3597 39.7715 96.7648 39.9989 96.0058 39.9989C95.2468 39.9989 94.6519 39.7715 94.2416 39.3168C93.8314 38.862 93.6262 38.2026 93.6262 37.3272V31.3016C93.6262 30.4148 93.4826 29.7782 93.2057 29.403C92.9288 29.0278 92.5185 28.8345 91.9852 28.8345C91.2672 28.8345 90.7031 29.0847 90.2723 29.5963C89.8415 30.1079 89.6261 30.7786 89.6261 31.6313V37.3386C89.6261 39.1235 88.8261 40.0103 87.2157 40.0103V39.9876Z" fill="white"/>
<path d="M106.708 40.0336C105.241 40.0336 103.969 39.7267 102.872 39.1127C101.785 38.4988 100.933 37.612 100.328 36.4638C99.723 35.3155 99.4153 33.9626 99.4153 32.3936C99.4153 31.2113 99.5896 30.1426 99.9281 29.199C100.267 28.2553 100.759 27.4595 101.405 26.7887C102.051 26.1293 102.821 25.6177 103.713 25.2766C104.605 24.9356 105.61 24.7537 106.718 24.7537C108.185 24.7537 109.457 25.0606 110.554 25.6746C111.652 26.2885 112.493 27.1639 113.088 28.3008C113.682 29.4377 113.99 30.802 113.99 32.3823C113.99 33.5533 113.816 34.6106 113.477 35.5656C113.139 36.5206 112.647 37.3278 112.021 37.9872C111.385 38.6466 110.616 39.1582 109.713 39.4993C108.811 39.8403 107.816 40.0223 106.728 40.0223L106.708 40.0336ZM106.708 36.1454C107.19 36.1454 107.621 36.009 107.99 35.7475C108.359 35.486 108.657 35.0767 108.862 34.531C109.067 33.9853 109.169 33.2804 109.169 32.405C109.169 31.0748 108.934 30.1198 108.472 29.54C108.01 28.9602 107.416 28.6646 106.708 28.6646C106.226 28.6646 105.795 28.7897 105.426 29.0512C105.046 29.3126 104.759 29.7106 104.544 30.2563C104.328 30.802 104.226 31.5182 104.226 32.405C104.226 33.7125 104.462 34.6674 104.923 35.2586C105.385 35.8498 105.99 36.1454 106.718 36.1454H106.708Z" fill="white"/>
<path d="M121.497 45.3012C120.533 45.3012 119.599 45.1648 118.697 44.9033C117.794 44.6418 116.974 44.2098 116.245 43.6072C116.102 43.5049 116.01 43.3798 115.969 43.2207C115.927 43.0615 115.917 42.9137 115.958 42.7659C115.989 42.6181 116.061 42.4817 116.163 42.368C116.266 42.2543 116.379 42.1747 116.512 42.1634C116.645 42.152 116.789 42.1634 116.933 42.2543C117.722 42.8228 118.471 43.232 119.199 43.4594C119.928 43.6868 120.676 43.8005 121.466 43.8005C122.769 43.8005 123.764 43.4026 124.441 42.5954C125.118 41.7882 125.456 40.6513 125.456 39.1619V35.4784H125.723C125.456 36.7062 124.882 37.6612 124.01 38.3547C123.138 39.0482 122.102 39.4007 120.902 39.4007C119.702 39.4007 118.666 39.0937 117.794 38.4912C116.922 37.8886 116.245 37.0473 115.774 35.9672C115.302 34.8872 115.066 33.6366 115.066 32.2155C115.066 31.1468 115.199 30.1804 115.466 29.305C115.733 28.4296 116.122 27.6792 116.635 27.0426C117.148 26.4059 117.753 25.917 118.471 25.576C119.189 25.2349 119.999 25.053 120.912 25.053C122.112 25.053 123.148 25.4054 124.02 26.1103C124.892 26.8152 125.456 27.7588 125.712 28.9526L125.446 29.1345V26.0762C125.446 25.7579 125.518 25.5191 125.661 25.3599C125.805 25.2008 126 25.1212 126.246 25.1212C126.512 25.1212 126.718 25.2008 126.851 25.3599C126.984 25.5191 127.056 25.7579 127.056 26.0762V38.9118C127.056 41.0265 126.595 42.6295 125.661 43.7095C124.728 44.7896 123.353 45.3239 121.538 45.3239L121.497 45.3012ZM121.066 37.8431C121.958 37.8431 122.728 37.6157 123.384 37.1496C124.041 36.6835 124.543 36.0355 124.902 35.1941C125.261 34.3528 125.436 33.3524 125.436 32.2041C125.436 30.476 125.046 29.1117 124.256 28.0999C123.466 27.088 122.41 26.5878 121.066 26.5878C120.174 26.5878 119.394 26.8152 118.738 27.2699C118.081 27.7247 117.569 28.3727 117.22 29.214C116.871 30.0553 116.697 31.0558 116.697 32.2041C116.697 33.9208 117.087 35.2965 117.876 36.3197C118.666 37.3429 119.723 37.8545 121.066 37.8545V37.8431Z" fill="#72D5FF"/>
<path d="M135.168 39.9532C134.203 39.9532 133.403 39.76 132.757 39.362C132.111 38.9641 131.629 38.3957 131.311 37.6567C130.993 36.9177 130.829 35.9968 130.829 34.9054V26.7652H128.849C128.613 26.7652 128.429 26.697 128.285 26.5719C128.142 26.4468 128.07 26.2649 128.07 26.0262C128.07 25.8102 128.142 25.6396 128.285 25.5032C128.429 25.3782 128.613 25.3099 128.849 25.3099H130.829V21.5923C130.829 21.2739 130.901 21.0466 131.044 20.8988C131.188 20.751 131.393 20.6714 131.66 20.6714C131.906 20.6714 132.111 20.751 132.255 20.8988C132.398 21.0466 132.47 21.2739 132.47 21.5923V25.3099H136.091C136.337 25.3099 136.532 25.3782 136.655 25.5032C136.778 25.6283 136.839 25.8102 136.839 26.0262C136.839 26.2649 136.778 26.4468 136.655 26.5719C136.532 26.697 136.337 26.7652 136.091 26.7652H132.47V34.6666C132.47 35.8718 132.696 36.7927 133.137 37.4293C133.578 38.066 134.326 38.3843 135.362 38.3843C135.721 38.3843 136.019 38.3388 136.265 38.2479C136.501 38.1569 136.706 38.1115 136.87 38.1115C136.993 38.1115 137.106 38.1683 137.209 38.2934C137.311 38.4184 137.352 38.6003 137.352 38.8618C137.352 39.021 137.321 39.1801 137.26 39.3393C137.198 39.4985 137.086 39.6008 136.921 39.6349C136.727 39.7145 136.46 39.7827 136.121 39.8623C135.783 39.9305 135.465 39.9646 135.188 39.9646L135.168 39.9532Z" fill="#72D5FF"/>
<path d="M141.253 39.8404C140.802 39.8404 140.453 39.6926 140.186 39.3743C139.919 39.0673 139.786 38.6808 139.786 38.2033C139.786 37.7258 139.919 37.3393 140.186 37.0323C140.453 36.7253 140.812 36.5662 141.253 36.5662C141.694 36.5662 142.053 36.714 142.309 37.0323C142.566 37.3393 142.699 37.7258 142.699 38.2033C142.699 38.6808 142.566 39.0673 142.309 39.3743C142.053 39.6813 141.694 39.8404 141.253 39.8404Z" fill="#FDC114"/>
<path d="M150.706 39.9852C149.404 39.9852 148.276 39.6669 147.332 39.0302C146.388 38.3935 145.66 37.5068 145.147 36.3699C144.634 35.233 144.388 33.9141 144.388 32.4021C144.388 31.2538 144.532 30.2192 144.819 29.3097C145.106 28.4002 145.527 27.6271 146.081 26.979C146.634 26.331 147.301 25.8421 148.081 25.5124C148.86 25.1714 149.742 25.0122 150.717 25.0122C151.363 25.0122 152.029 25.1259 152.727 25.3419C153.424 25.5579 154.06 25.9331 154.635 26.4674C154.809 26.6039 154.932 26.7744 154.983 26.9677C155.035 27.161 155.035 27.3542 154.983 27.5475C154.932 27.7408 154.84 27.8999 154.717 28.025C154.594 28.1501 154.44 28.2296 154.245 28.2524C154.05 28.2751 153.865 28.2069 153.671 28.0477C153.209 27.6498 152.727 27.377 152.245 27.2178C151.763 27.0586 151.301 26.979 150.85 26.979C150.153 26.979 149.547 27.1041 149.024 27.3542C148.501 27.6043 148.07 27.9568 147.711 28.4115C147.352 28.8663 147.086 29.4348 146.891 30.1055C146.706 30.7763 146.614 31.5608 146.614 32.4475C146.614 34.1756 146.983 35.5285 147.711 36.529C148.44 37.5295 149.486 38.0297 150.85 38.0297C151.301 38.0297 151.753 37.9502 152.235 37.791C152.717 37.6318 153.189 37.359 153.671 36.961C153.865 36.8019 154.05 36.7337 154.235 36.7564C154.409 36.7791 154.563 36.8474 154.686 36.9838C154.809 37.1202 154.901 37.2794 154.942 37.4727C154.983 37.6659 154.983 37.8592 154.932 38.0525C154.881 38.2457 154.758 38.4049 154.583 38.5413C154.009 39.0529 153.383 39.4281 152.706 39.6555C152.029 39.8829 151.363 39.9966 150.727 39.9966L150.706 39.9852Z" fill="white"/>
<path d="M161.67 39.9966C160.398 39.9966 159.301 39.6896 158.378 39.0757C157.444 38.4618 156.726 37.5977 156.224 36.4722C155.711 35.358 155.465 34.0278 155.465 32.5044C155.465 31.3561 155.608 30.3215 155.895 29.4006C156.183 28.4798 156.603 27.6953 157.157 27.0359C157.711 26.3765 158.367 25.8876 159.126 25.5352C159.885 25.1827 160.737 25.0122 161.69 25.0122C162.962 25.0122 164.06 25.3192 164.983 25.9331C165.916 26.547 166.634 27.4111 167.137 28.5366C167.65 29.6508 167.906 30.9809 167.906 32.5044C167.906 33.6527 167.762 34.6872 167.475 35.5968C167.188 36.5063 166.768 37.2907 166.214 37.9615C165.66 38.6209 165.003 39.1325 164.244 39.4736C163.485 39.8147 162.634 39.9966 161.68 39.9966H161.67ZM161.67 38.0638C162.47 38.0638 163.178 37.8478 163.783 37.4044C164.388 36.9724 164.86 36.3357 165.188 35.5058C165.516 34.6759 165.68 33.6754 165.68 32.5044C165.68 30.7081 165.321 29.3211 164.593 28.3774C163.865 27.4224 162.891 26.9563 161.66 26.9563C160.839 26.9563 160.131 27.1723 159.526 27.593C158.931 28.025 158.46 28.6389 158.131 29.4689C157.803 30.2988 157.639 31.3106 157.639 32.5158C157.639 34.3007 158.008 35.665 158.737 36.6313C159.465 37.5863 160.439 38.0752 161.66 38.0752L161.67 38.0638Z" fill="white"/>
<path d="M171.211 39.9397C170.852 39.9397 170.586 39.826 170.411 39.61C170.237 39.394 170.145 39.0871 170.145 38.6891V26.2969C170.145 25.899 170.237 25.6034 170.411 25.3874C170.586 25.1827 170.852 25.0804 171.191 25.0804C171.529 25.0804 171.796 25.1827 171.98 25.3874C172.165 25.592 172.257 25.899 172.257 26.2969V28.9118L171.96 28.4911C172.298 27.377 172.852 26.5243 173.611 25.9217C174.37 25.3192 175.273 25.0122 176.329 25.0122C177.437 25.0122 178.34 25.3078 179.027 25.8876C179.714 26.4674 180.176 27.377 180.412 28.6048H180.012C180.33 27.4907 180.914 26.6152 181.745 25.9786C182.576 25.3305 183.54 25.0122 184.648 25.0122C185.632 25.0122 186.443 25.2168 187.078 25.6375C187.714 26.0582 188.186 26.6835 188.514 27.5248C188.832 28.3661 188.997 29.4348 188.997 30.7195V38.6778C188.997 39.0757 188.904 39.3826 188.72 39.5987C188.535 39.8147 188.258 39.9284 187.899 39.9284C187.54 39.9284 187.294 39.8147 187.109 39.5987C186.925 39.3826 186.832 39.0757 186.832 38.6778V30.8331C186.832 29.503 186.627 28.5252 186.217 27.9113C185.807 27.2974 185.109 26.979 184.125 26.979C183.058 26.979 182.207 27.3883 181.591 28.2069C180.976 29.0255 180.668 30.1396 180.668 31.5494V38.6778C180.668 39.0757 180.576 39.3826 180.391 39.5987C180.206 39.8147 179.93 39.9284 179.571 39.9284C179.212 39.9284 178.965 39.8147 178.781 39.5987C178.596 39.3826 178.504 39.0757 178.504 38.6778V30.8331C178.504 29.503 178.288 28.5252 177.878 27.9113C177.458 27.286 176.77 26.979 175.796 26.979C174.729 26.979 173.878 27.3883 173.263 28.2069C172.647 29.0255 172.339 30.1396 172.339 31.5494V38.6778C172.339 39.5077 171.97 39.9284 171.242 39.9284L171.211 39.9397Z" fill="white"/>
</g>
<defs>
<clipPath id="clip0_1407_560">
<rect width="188.981" height="59.6191" fill="white" transform="translate(0 0.19043)"/>
</clipPath>
</defs>
</svg>
