<svg width="20" height="21" viewBox="0 0 20 21" fill="none" xmlns="http://www.w3.org/2000/svg">
<path d="M9.81038 3.61438C11.9937 3.61438 12.2529 3.62256 13.1139 3.66181C14.0461 3.70433 14.9088 3.89077 15.5736 4.55474C16.2376 5.21954 16.424 6.08304 16.4665 7.01359C16.5058 7.87546 16.514 8.13467 16.514 10.318C16.514 12.5012 16.5058 12.7604 16.4665 13.6215C16.424 14.5537 16.2376 15.4164 15.5728 16.0812C14.9088 16.7451 14.0453 16.9316 13.1147 16.9741C12.2529 17.0133 11.9937 17.0215 9.81038 17.0215C7.6271 17.0215 7.36789 17.0133 6.50684 16.9741C5.57465 16.9316 4.71197 16.7451 4.04718 16.0803C3.3832 15.4164 3.19676 14.5529 3.15424 13.6223C3.11499 12.7604 3.10681 12.5012 3.10681 10.318C3.10681 8.13467 3.11499 7.87546 3.15424 7.01441C3.19676 6.08222 3.3832 5.21954 4.04718 4.55474C4.71197 3.89077 5.57547 3.70433 6.50602 3.66181C7.36789 3.62256 7.6271 3.61438 9.81038 3.61438ZM9.81038 2.14087C7.58949 2.14087 7.31065 2.15068 6.43897 2.18993C5.1102 2.25044 3.94251 2.57671 3.00542 3.51298C2.06914 4.45008 1.74287 5.61776 1.68236 6.94654C1.64311 7.81822 1.6333 8.09706 1.6333 10.318C1.6333 12.5388 1.64311 12.8177 1.68236 13.6894C1.74287 15.0181 2.06914 16.1858 3.00542 17.1229C3.94251 18.06 5.1102 18.3855 6.43897 18.446C7.31065 18.4852 7.58949 18.495 9.81038 18.495C12.0313 18.495 12.3101 18.4852 13.1818 18.446C14.5106 18.3855 15.6783 18.0592 16.6154 17.1229C17.5524 16.1858 17.8779 15.0181 17.9384 13.6894C17.9777 12.8177 17.9875 12.5388 17.9875 10.318C17.9875 8.09706 17.9777 7.81822 17.9384 6.94654C17.8779 5.61776 17.5516 4.45008 16.6154 3.51298C15.6783 2.57671 14.5106 2.25044 13.1818 2.18993C12.3101 2.15068 12.0313 2.14087 9.81038 2.14087Z" fill="white"/>
<path d="M9.81197 6.11038C9.26056 6.11038 8.71455 6.21899 8.20511 6.43C7.69567 6.64102 7.23278 6.95031 6.84288 7.34022C6.45297 7.73013 6.14368 8.19301 5.93266 8.70245C5.72165 9.21189 5.61304 9.7579 5.61304 10.3093C5.61304 10.8607 5.72165 11.4067 5.93266 11.9162C6.14368 12.4256 6.45297 12.8885 6.84288 13.2784C7.23278 13.6683 7.69567 13.9776 8.20511 14.1886C8.71455 14.3996 9.26056 14.5082 9.81197 14.5082C10.9256 14.5082 11.9936 14.0659 12.7811 13.2784C13.5685 12.491 14.0109 11.4229 14.0109 10.3093C14.0109 9.19569 13.5685 8.12767 12.7811 7.34022C11.9936 6.55277 10.9256 6.11038 9.81197 6.11038ZM9.81197 13.0347C9.45004 13.041 9.09048 12.9751 8.75427 12.841C8.41807 12.7068 8.11195 12.507 7.85378 12.2533C7.59561 11.9995 7.39055 11.6969 7.25058 11.3631C7.11061 11.0293 7.03852 10.6709 7.03852 10.3089C7.03852 9.94692 7.11061 9.58855 7.25058 9.25472C7.39055 8.92089 7.59561 8.61828 7.85378 8.36454C8.11195 8.1108 8.41807 7.91102 8.75427 7.77685C9.09048 7.64268 9.45004 7.5768 9.81197 7.58307C10.5267 7.59545 11.208 7.88808 11.7091 8.39793C12.2102 8.90777 12.491 9.59404 12.491 10.3089C12.491 11.0238 12.2102 11.71 11.7091 12.2199C11.208 12.7297 10.5267 13.0224 9.81197 13.0347ZM14.1769 6.92563C14.4371 6.92563 14.6867 6.82225 14.8707 6.63823C15.0548 6.45421 15.1581 6.20463 15.1581 5.94438C15.1581 5.68414 15.0548 5.43456 14.8707 5.25054C14.6867 5.06652 14.4371 4.96313 14.1769 4.96313C13.9167 4.96313 13.6671 5.06652 13.483 5.25054C13.299 5.43456 13.1956 5.68414 13.1956 5.94438C13.1956 6.20463 13.299 6.45421 13.483 6.63823C13.6671 6.82225 13.9167 6.92563 14.1769 6.92563Z" fill="white"/>
</svg>
