<svg width="574" height="181" viewBox="0 0 574 181" fill="none" xmlns="http://www.w3.org/2000/svg">
<g clip-path="url(#clip0_52_71)">
<path d="M77.3205 171.36C120.022 171.36 154.639 132.99 154.639 85.6575C154.639 38.3254 120.022 -0.0448303 77.3205 -0.0448303C34.6189 -0.0448303 0.00244141 38.3254 0.00244141 85.6575C0.00244141 132.99 34.6189 171.36 77.3205 171.36Z" fill="#FDC114"/>
<path d="M77.3935 65.769C62.6648 65.769 50.6763 52.4805 50.6763 36.1891C50.6763 19.8977 62.6648 6.57471 77.3935 6.57471C92.1223 6.57471 104.111 19.8632 104.111 36.1546C104.111 52.446 92.1223 65.7345 77.3935 65.7345V65.769ZM77.3935 16.4462C67.5847 16.4462 59.582 25.2822 59.582 36.1546C59.582 47.027 67.5847 55.863 77.3935 55.863C87.2023 55.863 95.205 47.027 95.205 36.1546C95.205 25.2822 87.2023 16.4462 77.3935 16.4462Z" fill="#252A61"/>
<path d="M77.3162 61.2475C85.6615 47.8554 100.951 41.6426 115.337 46.6128C111.351 43.748 106.587 42.0913 101.511 42.0913H53.1524C48.0767 42.0913 43.3125 43.748 39.3267 46.6128C53.7129 41.6426 69.0021 47.8554 77.3474 61.2475H77.3162Z" fill="#57C2EF"/>
<path d="M127.249 82.5666C127 60.6147 103.459 50.2255 89.8197 65.3778C85.8339 69.7958 83.374 75.8706 83.374 82.5666V105.796C83.374 109.489 80.696 112.457 77.3641 112.457C74.0323 112.457 71.3543 109.489 71.3543 105.796V82.5666C71.3543 61.236 47.8444 49.9493 33.9253 65.3778C29.9395 69.7958 27.4795 75.8706 27.4795 82.5666V112.561C27.4795 128.231 39.0632 141.071 53.2003 141.071H101.559C114.7 141.071 127.28 127.644 127.28 112.561V82.5666H127.249Z" fill="#BEE6F4"/>
<path d="M49.3419 100.899C58.4739 100.899 65.8767 92.6931 65.8767 82.571C65.8767 72.4488 58.4739 64.2432 49.3419 64.2432C40.21 64.2432 32.8071 72.4488 32.8071 82.571C32.8071 92.6931 40.21 100.899 49.3419 100.899Z" fill="#252A61"/>
<path d="M105.275 100.899C114.406 100.899 121.809 92.6931 121.809 82.571C121.809 72.4488 114.406 64.2432 105.275 64.2432C96.1426 64.2432 88.7397 72.4488 88.7397 82.571C88.7397 92.6931 96.1426 100.899 105.275 100.899Z" fill="#252A61"/>
<path d="M114.654 75.8209C116.46 75.8209 117.924 74.1983 117.924 72.1967C117.924 70.1952 116.46 68.5726 114.654 68.5726C112.849 68.5726 111.385 70.1952 111.385 72.1967C111.385 74.1983 112.849 75.8209 114.654 75.8209Z" fill="white"/>
<path d="M121.231 161.757C124.563 161.757 127.241 164.725 127.241 168.418C127.241 172.112 124.563 175.08 121.231 175.08H33.419C30.0871 175.08 27.4092 172.112 27.4092 168.418C27.4092 164.725 30.0871 161.757 33.419 161.757H121.2H121.231Z" fill="white"/>
<path d="M58.0353 174.29C58.0353 177.983 55.3573 180.951 52.0254 180.951C48.6936 180.951 46.0156 177.983 46.0156 174.29V162.52C46.0156 158.827 48.6936 155.859 52.0254 155.859C55.3573 155.859 58.0353 158.827 58.0353 162.52V174.29Z" fill="#252A61"/>
<path d="M70.0377 174.29C70.0377 177.983 67.3598 180.951 64.0279 180.951C60.696 180.951 58.0181 177.983 58.0181 174.29V162.52C58.0181 158.827 60.696 155.859 64.0279 155.859C67.3598 155.859 70.0377 158.827 70.0377 162.52V174.29Z" fill="#252A61"/>
<path d="M96.6212 174.29C96.6212 177.983 93.9433 180.951 90.6114 180.951C87.2795 180.951 84.6016 177.983 84.6016 174.29V162.52C84.6016 158.827 87.2795 155.859 90.6114 155.859C93.9433 155.859 96.6212 158.827 96.6212 162.52V174.29Z" fill="#252A61"/>
<path d="M108.61 174.29C108.61 177.983 105.932 180.951 102.6 180.951C99.2683 180.951 96.5903 177.983 96.5903 174.29V162.52C96.5903 158.827 99.2683 155.859 102.6 155.859C105.932 155.859 108.61 158.827 108.61 162.52V174.29Z" fill="#252A61"/>
<path d="M58.7642 75.8209C60.57 75.8209 62.0338 74.1983 62.0338 72.1967C62.0338 70.1952 60.57 68.5726 58.7642 68.5726C56.9585 68.5726 55.4946 70.1952 55.4946 72.1967C55.4946 74.1983 56.9585 75.8209 58.7642 75.8209Z" fill="white"/>
<path d="M138.779 64.1236C137.066 52.1467 130.745 41.8265 121.87 35.4757H121.59C115.643 31.1267 108.668 28.538 101.506 28.538H53.1467C45.9536 28.538 39.0096 31.1267 33.0621 35.4757H32.7818C23.9072 41.8265 17.586 52.1467 15.8733 64.1236C15.5619 66.1601 15.4062 68.2655 15.4062 70.371V112.618C15.4062 135.122 33.4669 154.451 53.1467 154.451H101.506C121.185 154.451 139.246 135.122 139.246 112.618V70.371C139.246 68.2655 139.09 66.1601 138.779 64.1236ZM77.3417 61.2934C69.0899 48.0739 54.0497 41.8265 39.8192 46.4862C41.0025 45.6233 42.2169 44.8984 43.4936 44.2426C46.483 42.862 49.7526 42.1372 53.1778 42.1372H101.537C104.962 42.1372 108.263 42.8965 111.283 44.2772C112.529 44.8984 113.743 45.6578 114.895 46.4862C100.665 41.8265 85.5935 48.0394 77.3417 61.2934ZM127.257 112.618C127.257 127.701 114.646 141.128 101.537 141.128H53.1778C40.0372 141.128 27.457 127.701 27.457 112.618V82.624C27.7062 60.6721 51.2472 50.2829 64.8861 65.4352C68.8719 69.8532 71.3319 75.928 71.3319 82.624V105.853C71.3319 109.546 74.0098 112.515 77.3417 112.515C80.6736 112.515 83.3515 109.546 83.3515 105.853V82.624C83.3515 75.928 85.8115 69.8532 89.7973 65.4352C103.467 50.2829 126.977 60.6721 127.226 82.624V112.618H127.257Z" fill="#252A61"/>
<path d="M191.175 120.994C188.092 120.994 185.321 120.166 182.923 118.509C180.494 116.852 178.906 114.678 178.159 111.985L179.062 108.292V112.71C179.062 115.368 178.439 117.37 177.225 118.75C176.01 120.131 174.267 120.821 171.962 120.821C169.658 120.821 167.852 120.131 166.637 118.75C165.423 117.37 164.8 115.368 164.8 112.71V63.7326C164.8 61.0749 165.423 59.073 166.669 57.6923C167.914 56.3117 169.689 55.6214 171.962 55.6214C174.235 55.6214 176.104 56.3117 177.38 57.6923C178.657 59.073 179.28 61.0749 179.28 63.7326V83.0268H178.315C179.124 80.5762 180.712 78.5398 183.11 76.9866C185.508 75.4334 188.186 74.6395 191.175 74.6395C194.663 74.6395 197.683 75.5714 200.33 77.4353C202.946 79.2991 205.001 81.9568 206.464 85.3739C207.928 88.7909 208.675 92.9673 208.675 97.834C208.675 102.701 207.928 106.705 206.464 110.191C205.001 113.677 202.946 116.369 200.33 118.233C197.683 120.097 194.631 121.029 191.175 121.029V120.994ZM186.629 109.19C188.092 109.19 189.369 108.775 190.49 107.982C191.611 107.153 192.483 105.945 193.137 104.288C193.791 102.632 194.102 100.492 194.102 97.834C194.102 93.7957 193.386 90.8964 191.985 89.1361C190.583 87.3758 188.777 86.4784 186.629 86.4784C185.165 86.4784 183.857 86.858 182.736 87.6519C181.584 88.4458 180.712 89.6538 180.058 91.3106C179.404 92.9673 179.093 95.1418 179.093 97.834C179.093 101.803 179.809 104.703 181.211 106.497C182.612 108.292 184.449 109.19 186.66 109.19H186.629Z" fill="white"/>
<path d="M226.947 120.974C223.46 120.974 220.626 120.249 218.415 118.868C216.204 117.453 214.523 115.348 213.402 112.517C212.281 109.687 211.72 106.098 211.72 101.783V82.834C211.72 80.1763 212.343 78.1744 213.589 76.8283C214.834 75.4822 216.64 74.7919 218.944 74.7919C221.249 74.7919 223.055 75.4822 224.3 76.8283C225.546 78.1744 226.169 80.1763 226.169 82.834V102.232C226.169 104.406 226.574 106.029 227.383 107.099C228.193 108.169 229.469 108.721 231.213 108.721C233.175 108.721 234.763 107.927 236.009 106.374C237.254 104.821 237.877 102.75 237.877 100.161V82.834C237.877 80.1763 238.5 78.1744 239.745 76.8283C240.991 75.4822 242.797 74.7919 245.101 74.7919C247.405 74.7919 249.212 75.4822 250.457 76.8283C251.703 78.1744 252.325 80.1763 252.325 82.834V112.69C252.325 118.109 249.99 120.801 245.319 120.801C243.046 120.801 241.271 120.111 240.026 118.73C238.78 117.35 238.157 115.348 238.157 112.69V107.444L239.465 111.862C238.282 114.796 236.6 117.074 234.452 118.627C232.303 120.18 229.781 120.974 226.854 120.974H226.947Z" fill="white"/>
<path d="M264.781 120.822C262.508 120.822 260.733 120.132 259.487 118.751C258.242 117.37 257.619 115.369 257.619 112.711V63.7331C257.619 61.0754 258.242 59.0735 259.487 57.6929C260.733 56.3123 262.508 55.6219 264.781 55.6219C267.054 55.6219 268.923 56.3123 270.199 57.6929C271.476 59.0735 272.099 61.0754 272.099 63.7331V83.407H270.791C272.099 80.5768 273.936 78.4023 276.365 76.9181C278.762 75.4339 281.534 74.6746 284.617 74.6746C287.699 74.6746 290.44 75.3649 292.495 76.711C294.55 78.0571 296.107 80.1626 297.134 83.0274C298.162 85.8922 298.691 89.4818 298.691 93.7962V112.745C298.691 115.403 298.069 117.405 296.823 118.786C295.578 120.166 293.771 120.856 291.467 120.856C289.163 120.856 287.357 120.166 286.111 118.786C284.866 117.405 284.243 115.403 284.243 112.745V94.452C284.243 91.7598 283.807 89.8269 282.966 88.6879C282.126 87.5489 280.88 86.9621 279.261 86.9621C277.081 86.9621 275.368 87.7215 274.061 89.2747C272.753 90.8279 272.099 92.8643 272.099 95.453V112.78C272.099 118.199 269.67 120.891 264.781 120.891V120.822Z" fill="white"/>
<path d="M323.958 120.962C319.505 120.962 315.644 120.03 312.312 118.166C309.011 116.302 306.427 113.61 304.59 110.124C302.753 106.638 301.818 102.53 301.818 97.7671C301.818 94.1775 302.348 90.933 303.375 88.0682C304.403 85.2034 305.898 82.7873 307.859 80.7509C309.821 78.749 312.157 77.1958 314.866 76.1603C317.575 75.1248 320.626 74.5726 323.989 74.5726C328.442 74.5726 332.303 75.5045 335.635 77.3683C338.967 79.2322 341.521 81.8899 343.327 85.3415C345.133 88.793 346.067 92.9349 346.067 97.7326C346.067 101.288 345.537 104.498 344.51 107.397C343.482 110.296 341.988 112.747 340.088 114.749C338.158 116.751 335.822 118.304 333.082 119.339C330.342 120.375 327.321 120.927 324.02 120.927L323.958 120.962ZM323.958 109.157C325.422 109.157 326.73 108.743 327.851 107.949C328.972 107.155 329.875 105.913 330.497 104.256C331.12 102.599 331.432 100.459 331.432 97.8016C331.432 93.7633 330.715 90.864 329.314 89.1037C327.913 87.3434 326.107 86.446 323.958 86.446C322.495 86.446 321.187 86.8256 320.066 87.6195C318.914 88.4133 318.042 89.6214 317.388 91.2781C316.734 92.9349 316.423 95.1094 316.423 97.8016C316.423 101.771 317.139 104.67 318.54 106.465C319.941 108.26 321.778 109.157 323.989 109.157H323.958Z" fill="white"/>
<path d="M368.857 136.954C365.93 136.954 363.096 136.54 360.356 135.746C357.615 134.952 355.124 133.641 352.914 131.812C352.478 131.501 352.197 131.121 352.073 130.638C351.948 130.155 351.917 129.706 352.042 129.257C352.135 128.809 352.353 128.395 352.664 128.049C352.976 127.704 353.318 127.463 353.723 127.428C354.128 127.394 354.564 127.428 355 127.704C357.398 129.43 359.671 130.673 361.882 131.363C364.092 132.053 366.366 132.398 368.763 132.398C372.718 132.398 375.738 131.19 377.794 128.74C379.849 126.289 380.876 122.838 380.876 118.316V107.133H381.686C380.876 110.861 379.133 113.76 376.486 115.865C373.839 117.971 370.694 119.041 367.051 119.041C363.407 119.041 360.262 118.109 357.615 116.28C354.969 114.45 352.914 111.896 351.481 108.617C350.049 105.338 349.333 101.541 349.333 97.2269C349.333 93.9824 349.737 91.0486 350.547 88.3909C351.357 85.7332 352.54 83.4552 354.097 81.5223C355.654 79.5894 357.491 78.1052 359.671 77.0698C361.85 76.0343 364.31 75.4821 367.082 75.4821C370.725 75.4821 373.87 76.552 376.517 78.692C379.164 80.832 380.876 83.6968 381.655 87.3209L380.845 87.8732V78.5885C380.845 77.622 381.063 76.8972 381.499 76.414C381.935 75.9308 382.527 75.6892 383.274 75.6892C384.084 75.6892 384.706 75.9308 385.111 76.414C385.516 76.8972 385.734 77.622 385.734 78.5885V117.557C385.734 123.977 384.333 128.843 381.499 132.122C378.665 135.401 374.493 137.023 368.981 137.023L368.857 136.954ZM367.549 114.312C370.258 114.312 372.593 113.622 374.586 112.207C376.579 110.792 378.105 108.824 379.195 106.27C380.285 103.716 380.814 100.678 380.814 97.1924C380.814 91.946 379.631 87.8041 377.233 84.7322C374.835 81.6604 371.628 80.1417 367.549 80.1417C364.84 80.1417 362.473 80.832 360.48 82.2126C358.487 83.5932 356.93 85.5606 355.872 88.1148C354.813 90.6689 354.284 93.7063 354.284 97.1924C354.284 102.404 355.467 106.581 357.865 109.687C360.262 112.793 363.47 114.347 367.549 114.347V114.312Z" fill="#72D5FF"/>
<path d="M410.36 120.718C407.433 120.718 405.004 120.131 403.043 118.923C401.081 117.715 399.617 115.989 398.652 113.746C397.687 111.502 397.188 108.707 397.188 105.393V80.6799H391.179C390.462 80.6799 389.902 80.4728 389.466 80.0931C389.03 79.7135 388.812 79.1612 388.812 78.4364C388.812 77.7806 389.03 77.2629 389.466 76.8487C389.902 76.469 390.462 76.2619 391.179 76.2619H397.188V64.9753C397.188 64.0089 397.406 63.3185 397.842 62.8698C398.278 62.4211 398.901 62.1795 399.711 62.1795C400.458 62.1795 401.081 62.4211 401.517 62.8698C401.953 63.3185 402.171 64.0089 402.171 64.9753V76.2619H413.163C413.91 76.2619 414.502 76.469 414.875 76.8487C415.249 77.2284 415.436 77.7806 415.436 78.4364C415.436 79.1612 415.249 79.7135 414.875 80.0931C414.502 80.4728 413.91 80.6799 413.163 80.6799H402.171V104.668C402.171 108.327 402.856 111.123 404.195 113.056C405.534 114.988 407.807 115.955 410.952 115.955C412.042 115.955 412.945 115.817 413.692 115.541C414.408 115.265 415.031 115.127 415.529 115.127C415.903 115.127 416.245 115.299 416.557 115.679C416.868 116.058 416.993 116.611 416.993 117.405C416.993 117.888 416.899 118.371 416.713 118.854C416.526 119.337 416.183 119.648 415.685 119.752C415.093 119.993 414.284 120.2 413.256 120.442C412.229 120.649 411.263 120.753 410.422 120.753L410.36 120.718Z" fill="#72D5FF"/>
<path d="M428.834 120.375C427.464 120.375 426.405 119.926 425.596 118.96C424.786 118.028 424.381 116.854 424.381 115.404C424.381 113.955 424.786 112.781 425.596 111.849C426.405 110.917 427.495 110.434 428.834 110.434C430.173 110.434 431.263 110.883 432.042 111.849C432.82 112.781 433.225 113.955 433.225 115.404C433.225 116.854 432.82 118.028 432.042 118.96C431.263 119.891 430.173 120.375 428.834 120.375Z" fill="#FDC114"/>
<path d="M457.535 120.814C453.58 120.814 450.155 119.848 447.29 117.915C444.426 115.982 442.215 113.29 440.658 109.838C439.101 106.387 438.354 102.383 438.354 97.7922C438.354 94.3061 438.789 91.1652 439.661 88.4039C440.533 85.6426 441.81 83.2956 443.491 81.3282C445.173 79.3608 447.197 77.8766 449.564 76.8757C451.93 75.8402 454.608 75.357 457.566 75.357C459.528 75.357 461.552 75.7021 463.669 76.3579C465.787 77.0137 467.718 78.1528 469.461 79.775C469.991 80.1892 470.364 80.7069 470.52 81.2937C470.676 81.8804 470.676 82.4672 470.52 83.054C470.364 83.6407 470.084 84.124 469.71 84.5036C469.337 84.8833 468.87 85.1249 468.278 85.194C467.686 85.263 467.126 85.0559 466.534 84.5727C465.133 83.3646 463.669 82.5362 462.206 82.053C460.742 81.5698 459.341 81.3282 457.971 81.3282C455.854 81.3282 454.016 81.7079 452.428 82.4672C450.84 83.2266 449.532 84.2965 448.443 85.6772C447.353 87.0578 446.543 88.7836 445.951 90.82C445.391 92.8564 445.111 95.238 445.111 97.9302C445.111 103.177 446.232 107.284 448.443 110.321C450.653 113.359 453.83 114.877 457.971 114.877C459.341 114.877 460.711 114.636 462.175 114.153C463.638 113.669 465.071 112.841 466.534 111.633C467.126 111.15 467.686 110.943 468.247 111.012C468.776 111.081 469.243 111.288 469.617 111.702C469.991 112.116 470.271 112.599 470.396 113.186C470.52 113.773 470.52 114.36 470.364 114.946C470.209 115.533 469.835 116.016 469.306 116.431C467.562 117.984 465.662 119.123 463.607 119.813C461.552 120.503 459.528 120.849 457.597 120.849L457.535 120.814Z" fill="white"/>
<path d="M490.82 120.849C486.959 120.849 483.627 119.917 480.824 118.053C477.991 116.189 475.811 113.566 474.285 110.149C472.728 106.766 471.981 102.728 471.981 98.1028C471.981 94.6167 472.417 91.4758 473.289 88.68C474.161 85.8843 475.437 83.5027 477.119 81.5008C478.8 79.4989 480.793 78.0147 483.098 76.9447C485.402 75.8747 487.986 75.357 490.882 75.357C494.744 75.357 498.075 76.2889 500.878 78.1528C503.712 80.0166 505.891 82.6398 507.417 86.0568C508.974 89.4394 509.753 93.4777 509.753 98.1028C509.753 101.589 509.317 104.73 508.445 107.491C507.573 110.252 506.296 112.634 504.615 114.67C502.933 116.672 500.94 118.225 498.636 119.261C496.332 120.296 493.747 120.849 490.851 120.849H490.82ZM490.82 114.981C493.249 114.981 495.397 114.325 497.235 112.979C499.072 111.667 500.504 109.735 501.501 107.215C502.497 104.695 502.995 101.658 502.995 98.1028C502.995 92.6493 501.906 88.4384 499.695 85.5736C497.484 82.6743 494.526 81.2592 490.789 81.2592C488.298 81.2592 486.149 81.915 484.312 83.192C482.506 84.5036 481.074 86.3675 480.077 88.8871C479.081 91.4068 478.582 94.4787 478.582 98.1373C478.582 103.556 479.703 107.698 481.914 110.632C484.125 113.531 487.083 115.015 490.789 115.015L490.82 114.981Z" fill="white"/>
<path d="M519.786 120.676C518.696 120.676 517.887 120.331 517.357 119.675C516.828 119.019 516.548 118.087 516.548 116.879V79.2573C516.548 78.0492 516.828 77.1518 517.357 76.496C517.887 75.8747 518.696 75.5641 519.724 75.5641C520.752 75.5641 521.561 75.8747 522.122 76.496C522.682 77.1173 522.962 78.0492 522.962 79.2573V87.1959L522.059 85.9188C523.087 82.5362 524.769 79.9476 527.073 78.1182C529.377 76.2889 532.117 75.357 535.325 75.357C538.688 75.357 541.428 76.2544 543.514 78.0147C545.6 79.775 547.002 82.5362 547.718 86.2639H546.504C547.469 82.8814 549.244 80.2237 551.766 78.2908C554.288 76.3234 557.215 75.357 560.578 75.357C563.568 75.357 566.028 75.9783 567.958 77.2554C569.889 78.5324 571.321 80.4308 572.318 82.9849C573.283 85.5391 573.781 88.7836 573.781 92.6838V116.845C573.781 118.053 573.501 118.985 572.941 119.641C572.38 120.296 571.539 120.642 570.449 120.642C569.36 120.642 568.612 120.296 568.052 119.641C567.491 118.985 567.211 118.053 567.211 116.845V93.029C567.211 88.9907 566.588 86.0223 565.343 84.1585C564.097 82.2946 561.98 81.3282 558.99 81.3282C555.752 81.3282 553.167 82.5708 551.299 85.0559C549.431 87.541 548.496 90.9235 548.496 95.2035V116.845C548.496 118.053 548.216 118.985 547.656 119.641C547.095 120.296 546.254 120.642 545.165 120.642C544.075 120.642 543.327 120.296 542.767 119.641C542.206 118.985 541.926 118.053 541.926 116.845V93.029C541.926 88.9907 541.272 86.0223 540.027 84.1585C538.75 82.2601 536.664 81.3282 533.705 81.3282C530.467 81.3282 527.882 82.5708 526.014 85.0559C524.146 87.541 523.212 90.9235 523.212 95.2035V116.845C523.212 119.364 522.091 120.642 519.88 120.642L519.786 120.676Z" fill="white"/>
</g>
<defs>
<clipPath id="clip0_52_71">
<rect width="573.736" height="181" fill="white"/>
</clipPath>
</defs>
</svg>
