<svg width="20" height="20" viewBox="0 0 20 20" fill="none" xmlns="http://www.w3.org/2000/svg">
<path d="M9.81258 1.82593C5.31519 1.82593 1.6355 5.50562 1.6355 10.003C1.6355 13.4783 3.81633 16.4081 6.81404 17.6347C6.74618 17.0214 6.67831 15.9993 6.81404 15.3181C6.9506 14.7048 7.76831 11.2296 7.76831 11.2296C7.76831 11.2296 7.56388 10.6842 7.56388 10.003C7.56388 8.84432 8.24503 8.02661 9.06274 8.02661C9.74471 8.02661 10.0849 8.57202 10.0849 9.1853C10.0849 9.86645 9.60815 10.9573 9.40373 11.9107C9.1993 12.7284 9.81258 13.4104 10.6303 13.4104C12.0613 13.4104 13.22 11.9107 13.22 9.66203C13.22 7.68644 11.789 6.32332 9.81258 6.32332C7.49601 6.32332 6.13289 8.0953 6.13289 9.86645C6.13289 10.5484 6.40519 11.2974 6.74617 11.7063C6.81404 11.775 6.81404 11.8429 6.81404 11.9107C6.74618 12.1838 6.60962 12.7284 6.60962 12.865C6.54175 13.0015 6.47388 13.0694 6.33732 13.0015C5.31519 12.524 4.7019 11.0251 4.7019 9.86645C4.7019 7.27759 6.60962 4.89233 10.0849 4.89233C12.9469 4.89233 15.1277 6.9366 15.1277 9.59416C15.1277 12.3883 13.3557 14.7048 10.9026 14.7048C10.0849 14.7048 9.26717 14.296 8.99487 13.7506C8.99487 13.7506 8.58602 15.3181 8.51815 15.727C8.31372 16.4081 7.83618 17.2945 7.49601 17.8391C8.17716 18.0435 8.99487 18.1801 9.81258 18.1801C14.31 18.1801 17.9897 14.5004 17.9897 10.003C17.9897 5.50562 14.31 1.82593 9.81258 1.82593Z" fill="white"/>
</svg>
