<svg width="20" height="20" viewBox="0 0 20 20" fill="none" xmlns="http://www.w3.org/2000/svg">
<path d="M17.9897 5.39812C17.3764 5.66797 16.7631 5.86994 16.082 5.93781C16.772 5.51645 17.3 4.87495 17.5808 4.11677C16.8997 4.52154 16.2177 4.79138 15.4687 4.9263C15.1575 4.5855 14.7785 4.31345 14.3561 4.12758C13.9337 3.94172 13.4771 3.84612 13.0155 3.84693C11.1757 3.84693 9.67602 5.33025 9.67602 7.15129C9.67602 7.42113 9.67602 7.69098 9.74471 7.89295C6.88273 7.75803 4.42961 6.40963 2.79419 4.38662C2.45321 4.9263 2.31665 5.46599 2.31665 6.07273C2.31665 7.21916 2.92993 8.23066 3.81633 8.8374C3.27091 8.8374 2.7255 8.70248 2.31665 8.43264V8.50051C2.31665 10.1196 3.47534 11.468 4.9742 11.737C4.7019 11.8049 4.42961 11.8719 4.08862 11.8719C3.8842 11.8719 3.67977 11.8719 3.47534 11.8049C3.8842 13.1541 5.11076 14.0977 6.60962 14.0977C5.45174 14.9743 4.02075 15.514 2.45321 15.514C2.18091 15.514 1.90779 15.514 1.6355 15.4469C3.13436 16.3906 4.90633 16.9303 6.74617 16.9303C12.9469 16.9303 16.2864 11.8719 16.2864 7.489V7.08424C16.9675 6.6116 17.5129 6.00486 17.9897 5.39812Z" fill="white"/>
</svg>
